<svg version="1.1" xmlns="http://www.w3.org/2000/svg" viewBox="-513.7015221042338 -1000.1240850719627 1062.9561707377052 2078.1323580318012" fill="none" stroke="black" stroke-width="0.6%" vector-effect="non-scaling-stroke">
    <path d="M -98.31557 -4.98317 L -88.89771 -2.84337 L -88.89771 91.25799 L -41.80839 101.95701 L -41.80839 129.72462 L 101.68988 -107.20395" />
    <path d="M -88.89771 119.0256 L -41.80839 129.72462" />
    <path d="M -88.89771 119.0256 L -88.89771 955.1393 L -41.80839 965.83832 L -41.80839 993.60593 L 101.68988 756.67736" />
    <path d="M -88.89771 982.90691 L -41.80839 993.60593" />
    <path d="M -88.89771 982.90691 L -88.89771 1077.00827 L -22.60338 976.03756 A 22.5 5.83488 282.80068 0 0 -18.43434 967.09019 L -8.99019 939.42012" />
    <path d="M -98.31557 1074.86847 L -88.89771 1077.00827" />
    <path d="M -98.31557 980.76711 L -98.31557 1074.86847" />
    <path d="M -446.77648 901.59437 L -98.31557 980.76711" />
    <path d="M -446.77648 901.59437 L -446.77648 995.69573 L -393.0127 913.80988" />
    <path d="M -456.19435 993.55593 L -446.77648 995.69573" />
    <path d="M -456.19435 899.45457 L -456.19435 993.55593" />
    <path d="M -512.70152 886.61575 L -456.19435 899.45457" />
    <path d="M -512.70152 858.84813 L -512.70152 886.61575" />
    <path d="M -512.70152 858.84813 L -456.19435 871.68696" />
    <path d="M -456.19435 35.57326 L -456.19435 871.68696" />
    <path d="M -512.70152 22.73443 L -456.19435 35.57326" />
    <path d="M -512.70152 -5.03318 L -512.70152 22.73443" />
    <path d="M -512.70152 -5.03318 L -456.19435 7.80564" />
    <path d="M -456.19435 -86.29571 L -456.19435 7.80564" />
    <path d="M -456.19435 -86.29571 L -446.77648 -84.15591 L -446.77648 9.94545 L -304.72682 -243.29876 L -304.72682 -260.26785 A 22.5 5.83488 282.80068 0 0 -307.3065 -268.72228 L -316.72436 -270.86208 A 22.5 5.83488 282.80068 0 0 -318.48854 -270.36656 L -309.07068 -268.22675 L -376.31312 -225.4801" />
    <path d="M -446.77648 9.94545 L -98.31557 89.11818" />
    <path d="M -98.31557 -4.98317 L -98.31557 89.11818" />
    <path d="M -98.31557 116.8858 L -98.31557 952.9995" />
    <path d="M -446.77648 37.71306 L -98.31557 116.8858" />
    <path d="M -446.77648 37.71306 L -446.77648 873.82676 L -98.31557 952.9995" />
    <path d="M -32.02124 -140.38971 L -22.60338 -138.2499 L -88.89771 -2.84337" />
    <path d="M -32.02124 -140.38971 L -98.31557 -4.98317" />
    <path d="M 41.15442 -189.54954 A 22.5 5.83488 282.80068 0 0 39.39024 -189.05402 L 48.8081 -186.91421 L -18.43434 -144.16756 A 22.5 5.83488 282.80068 0 0 -22.60338 -138.2499" />
    <path d="M 39.39024 -189.05402 L -27.8522 -146.30736 L -18.43434 -144.16756" />
    <path d="M -32.02124 -140.38971 A 22.5 5.83488 102.80068 0 1 -27.8522 -146.30736" />
    <path d="M -88.89771 91.25799 L 53.15195 -161.98622 L 53.15195 -178.95531 A 22.5 5.83488 282.80068 0 0 50.57228 -187.40974 A 22.5 5.83488 282.80068 0 0 48.8081 -186.91421" />
    <path d="M 53.15195 701.8951 L 53.15195 -27.06346" />
    <path d="M -88.89771 955.1393 L 53.15195 701.8951" />
    <path d="M -41.80839 101.95701 L 101.68988 -134.97156 A 40 25.45778 180 0 0 104.4229 -144.22023 L 104.4229 -116.45262 A 40 25.45778 0 0 1 101.68988 -107.20395" />
    <path d="M -388.00749 -246.2342 L -512.70152 -5.03318" />
    <path d="M -374.56405 -258.44525 A 40 25.45778 180 0 0 -388.00749 -246.2342" />
    <path d="M -62.1588 -410.72795 L -374.56405 -258.44525" />
    <path d="M -20.36107 -485.2444 L -62.1588 -410.72795" />
    <path d="M -204.88692 -615.63123 L -20.36107 -485.2444" />
    <path d="M -173.32657 -635.9672 A 22.5 14.32 180 0 0 -210.60161 -625.16735 A 22.5 14.32 180 0 0 -204.88692 -615.63123 L -204.88692 -587.86361 L -31.51545 -465.35852" />
    <path d="M 7.47406 -534.86848 L -173.32657 -635.9672" />
    <path d="M 46.88138 -605.12331 L 7.47406 -534.86848" />
    <path d="M -137.64448 -735.51014 L 46.88138 -605.12331" />
    <path d="M -106.08413 -755.84611 A 22.5 14.32 180 0 0 -143.35917 -745.04626 A 22.5 14.32 180 0 0 -137.64448 -735.51014 L -137.64448 -707.74253 L 35.727 -585.23743" />
    <path d="M 74.7165 -654.74739 L -106.08413 -755.84611" />
    <path d="M 114.12382 -725.00222 L 74.7165 -654.74739" />
    <path d="M -70.40204 -855.38905 L 114.12382 -725.00222" />
    <path d="M -38.84169 -875.72502 A 22.5 14.32 180 0 0 -76.11672 -864.92517 A 22.5 14.32 180 0 0 -70.40204 -855.38905 L -70.40204 -827.62144 L 102.96944 -705.11635" />
    <path d="M 141.95894 -774.62631 L -38.84169 -875.72502" />
    <path d="M 181.36626 -844.88114 L 141.95894 -774.62631" />
    <path d="M -3.1596 -975.26797 L 181.36626 -844.88114" />
    <path d="M 28.40075 -995.60394 A 22.5 14.32 180 0 0 -8.87428 -984.80409 A 22.5 14.32 180 0 0 -3.1596 -975.26797 L -3.1596 -947.50035 L 170.21188 -824.99526" />
    <path d="M 241.53302 -876.42626 L 28.40075 -995.60394" />
    <path d="M 525.06607 -882.75813 L 241.53302 -876.42626" />
    <path d="M 525.06607 -882.75813 A 22.5 14.32 0 0 1 548.25465 -868.44484 L 548.25465 -840.67723 A 22.5 14.32 0 0 1 529.25648 -826.53173" />
    <path d="M 548.25465 -868.44484 A 22.5 14.32 0 0 1 529.25648 -854.29934 L 529.25648 -826.53173" />
    <path d="M 256.70916 -827.76271 L 529.25648 -854.29934" />
    <path d="M 217.30184 -757.50788 L 256.70916 -827.76271 L 256.70916 -799.99509 L 529.25648 -826.53173" />
    <path d="M 457.82362 -762.87922 L 217.30184 -757.50788" />
    <path d="M 457.82362 -762.87922 A 22.5 14.32 0 0 1 481.01221 -748.56593 L 481.01221 -720.79831 A 22.5 14.32 0 0 1 462.01403 -706.65281" />
    <path d="M 481.01221 -748.56593 A 22.5 14.32 0 0 1 462.01403 -734.42043 L 462.01403 -706.65281" />
    <path d="M 189.46672 -707.88379 L 462.01403 -734.42043" />
    <path d="M 150.0594 -637.62896 L 189.46672 -707.88379 L 189.46672 -680.11618 L 462.01403 -706.65281" />
    <path d="M 390.58118 -643.0003 L 150.0594 -637.62896" />
    <path d="M 390.58118 -643.0003 A 22.5 14.32 0 0 1 413.76976 -628.68701 L 413.76976 -600.9194 A 22.5 14.32 0 0 1 394.77159 -586.7739" />
    <path d="M 413.76976 -628.68701 A 22.5 14.32 0 0 1 394.77159 -614.54151 L 394.77159 -586.7739" />
    <path d="M 122.22428 -588.00488 L 394.77159 -614.54151" />
    <path d="M 82.81696 -517.75005 L 122.22428 -588.00488 L 122.22428 -560.23727 L 394.77159 -586.7739" />
    <path d="M 323.33874 -523.12139 L 82.81696 -517.75005" />
    <path d="M 323.33874 -523.12139 A 22.5 14.32 0 0 1 346.52732 -508.8081 L 346.52732 -481.04049 A 22.5 14.32 0 0 1 327.52915 -466.89499 L 327.52915 -494.6626" />
    <path d="M 346.52732 -508.8081 A 22.5 14.32 0 0 1 327.52915 -494.6626" />
    <path d="M 54.98183 -468.12597 L 327.52915 -494.6626" />
    <path d="M 13.1841 -393.60952 L 54.98183 -468.12597" />
    <path d="M 103.43602 -149.84031 L 13.1841 -393.60952" />
    <path d="M 104.4229 -144.22023 A 40 25.45778 180 0 0 103.43602 -149.84031" />
    <path d="M -389.90002 -221.70225 L -380.48216 -219.56244 A 22.5 5.83488 102.80068 0 1 -376.31312 -225.4801" />
    <path d="M -389.90002 -221.70225 L -456.19435 -86.29571" />
    <path d="M -380.48216 -219.56244 L -446.77648 -84.15591" />
    <path d="M -307.3065 -268.72228 A 22.5 5.83488 282.80068 0 0 -309.07068 -268.22675" />
    <path d="M -204.88692 -587.86361 A 22.5 14.32 0 0 1 -210.60161 -597.39973" />
    <path d="M -137.64448 -707.74253 A 22.5 14.32 0 0 1 -143.35917 -717.27865" />
    <path d="M -70.40204 -827.62144 A 22.5 14.32 0 0 1 -76.11672 -837.15756" />
    <path d="M -3.1596 -947.50035 A 22.5 14.32 0 0 1 -8.87428 -957.03647" />
    <path d="M 233.07482 -757.86012 L 256.70916 -799.99509" />
    <path d="M 165.83238 -637.98121 L 189.46672 -680.11618" />
    <path d="M 98.58994 -518.10229 L 122.22428 -560.23727" />
    <path d="M 54.98183 -440.35835 L 327.52915 -466.89499" />
    <path d="M 19.37701 -376.88255 L 54.98183 -440.35835 L 54.98183 -468.12597" />
    <path d="M -304.72682 620.58256 L -304.72682 69.98773" />
    <path d="M -446.77648 873.82676 L -304.72682 620.58256" />
    <path d="M -41.80839 965.83832 L 101.68988 728.90975 L 101.68988 756.67736" />
    <path d="M -456.19435 749.54387 L -512.70152 858.84813" />
    <path d="M -98.31557 470.77806 L -304.72682 571.39374" />
    <path d="M -204.88692 248.25009 L -98.31557 323.5539" />
    <path d="M -173.32657 227.91412 A 22.5 14.32 180 0 0 -210.60161 238.71397 L -210.60161 266.48158" />
    <path d="M -210.60161 238.71397 A 22.5 14.32 180 0 0 -204.88692 248.25009 L -204.88692 276.0177 L -98.31557 351.32152" />
    <path d="M -98.31557 269.8582 L -173.32657 227.91412" />
    <path d="M -137.64448 128.37117 L -98.31557 156.16117" />
    <path d="M -136.10031 108.30084 A 22.5 14.32 180 0 0 -143.35917 118.83505 L -143.35917 146.60267" />
    <path d="M -143.35917 118.83505 A 22.5 14.32 180 0 0 -137.64448 128.37117 L -137.64448 156.13879 L -98.31557 183.92878" />
    <path d="M 74.7165 209.13392 L 53.15195 197.07562" />
    <path d="M 114.12382 138.87909 L 74.7165 209.13392" />
    <path d="M 53.15195 95.79609 L 114.12382 138.87909" />
    <path d="M 141.95894 89.25501 L 53.15195 39.59659" />
    <path d="M 181.36626 19.00018 L 141.95894 89.25501" />
    <path d="M 72.0404 -58.24999 L 181.36626 19.00018" />
    <path d="M 241.53302 -12.54495 L 94.24163 -94.90622" />
    <path d="M 525.06607 -18.87682 L 241.53302 -12.54495" />
    <path d="M 525.06607 -18.87682 A 22.5 14.32 0 0 1 548.25465 -4.56353 L 548.25465 23.20409 A 22.5 14.32 0 0 1 529.25648 37.34959" />
    <path d="M 548.25465 -4.56353 A 22.5 14.32 0 0 1 529.25648 9.58197 L 529.25648 37.34959" />
    <path d="M 256.70916 36.11861 L 529.25648 9.58197" />
    <path d="M 217.30184 106.37344 L 256.70916 36.11861 L 256.70916 63.88622 L 529.25648 37.34959" />
    <path d="M 457.82362 101.0021 L 217.30184 106.37344" />
    <path d="M 457.82362 101.0021 A 22.5 14.32 0 0 1 481.01221 115.31539 L 481.01221 143.083 A 22.5 14.32 0 0 1 462.01403 157.2285" />
    <path d="M 481.01221 115.31539 A 22.5 14.32 0 0 1 462.01403 129.46089 L 462.01403 157.2285" />
    <path d="M 189.46672 155.99752 L 462.01403 129.46089" />
    <path d="M 150.0594 226.25235 L 189.46672 155.99752 L 189.46672 183.76513 L 462.01403 157.2285" />
    <path d="M 390.58118 220.88101 L 150.0594 226.25235" />
    <path d="M 390.58118 220.88101 A 22.5 14.32 0 0 1 413.76976 235.1943 L 413.76976 262.96191 A 22.5 14.32 0 0 1 394.77159 277.10741" />
    <path d="M 413.76976 235.1943 A 22.5 14.32 0 0 1 394.77159 249.3398 L 394.77159 277.10741" />
    <path d="M 122.22428 275.87643 L 394.77159 249.3398" />
    <path d="M 82.81696 346.13126 L 122.22428 275.87643 L 122.22428 303.64405 L 394.77159 277.10741" />
    <path d="M 323.33874 340.75992 L 82.81696 346.13126" />
    <path d="M 323.33874 340.75992 A 22.5 14.32 0 0 1 346.52732 355.07321 L 346.52732 382.84083 A 22.5 14.32 0 0 1 327.52915 396.98633 L 327.52915 369.21871" />
    <path d="M 346.52732 355.07321 A 22.5 14.32 0 0 1 327.52915 369.21871" />
    <path d="M 54.98183 395.75535 L 327.52915 369.21871" />
    <path d="M 53.15195 399.01764 L 54.98183 395.75535" />
    <path d="M 103.43602 714.041 L 53.15195 578.22442" />
    <path d="M 101.68988 728.90975 A 40 25.45778 180 0 0 104.4229 719.66108 L 104.4229 747.4287 A 40 25.45778 0 0 1 101.68988 756.67736" />
    <path d="M 104.4229 719.66108 A 40 25.45778 180 0 0 103.43602 714.041" />
    <path d="M -204.88692 276.0177 A 22.5 14.32 0 0 1 -210.60161 266.48158" />
    <path d="M -137.64448 156.13879 A 22.5 14.32 0 0 1 -143.35917 146.60267" />
    <path d="M 53.15195 123.5637 L 102.96944 158.76497" />
    <path d="M 60.26295 -38.80437 L 170.21188 38.88605" />
    <path d="M 233.07482 106.02119 L 256.70916 63.88622" />
    <path d="M 165.83238 225.90011 L 189.46672 183.76513" />
    <path d="M 98.58994 345.77902 L 122.22428 303.64405" />
    <path d="M 54.98183 423.52296 L 327.52915 396.98633" />
    <path d="M 53.15195 426.78525 L 54.98183 423.52296 L 54.98183 395.75535" />
    <path d="M -385.73098 -227.6199 A 22.5 5.83488 282.80068 0 0 -389.90002 -221.70225" />
    <path d="M -318.48854 -270.36656 L -385.73098 -227.6199 L -376.31312 -225.4801" />
    <path d="M 101.68988 -134.97156 L 101.68988 -107.20395" />
    <path d="M 50.57228 -187.40974 L 41.15442 -189.54954" />
    <path d="M -210.60161 -625.16735 L -210.60161 -597.39973" />
    <path d="M -143.35917 -745.04626 L -143.35917 -717.27865" />
    <path d="M -76.11672 -864.92517 L -76.11672 -837.15756" />
    <path d="M -8.87428 -984.80409 L -8.87428 -957.03647" />
</svg>