<svg version="1.1" xmlns="http://www.w3.org/2000/svg" viewBox="-513.701348072062 -1038.6902383744446 1062.9558380894491 2116.698528037183" fill="none" stroke="black" stroke-width="0.6%" vector-effect="non-scaling-stroke">
    <path d="M -98.31536 -4.98311 L -88.8975 -2.84331 L -88.8975 52.69192 L -41.80818 63.39093 L 92.67661 -176.36693 L 12.92014 -431.70502 L 54.98183 -506.69209 L 54.98183 -492.80829 L 327.52914 -519.34497 L 327.52914 -533.22877" />
    <path d="M -41.80818 77.27474 L -41.80818 63.39093" />
    <path d="M -88.8975 66.57572 L -41.80818 77.27474 L 92.67661 -162.48313 L 92.67661 -176.36693" />
    <path d="M -88.8975 66.57572 L -88.8975 68.11837 L -41.80818 78.81738 L 92.67661 -160.94048 L 92.36711 -161.93135" />
    <path d="M -41.80818 92.70119 L -41.80818 78.81738" />
    <path d="M -88.8975 82.00217 L -41.80818 92.70119 L 92.67661 -147.05668 L 92.67661 -160.94048" />
    <path d="M -88.8975 82.00217 L -88.8975 978.279 L -41.80818 988.97801 L 92.67661 749.22015 L 53.15207 622.68343" />
    <path d="M -41.80818 1002.86182 L -41.80818 988.97801" />
    <path d="M -88.8975 992.16281 L -41.80818 1002.86182 L 92.67661 763.10396 L 92.67661 749.22015" />
    <path d="M -88.8975 992.16281 L -88.8975 993.70545 L -41.80818 1004.40446 L 92.67661 764.6466 L 92.36711 763.65573" />
    <path d="M -41.80818 1018.28827 L -41.80818 1004.40446" />
    <path d="M -88.8975 1007.58926 L -41.80818 1018.28827 L 92.67661 778.53041 L 92.67661 764.6466" />
    <path d="M -88.8975 1007.58926 L -88.8975 1077.00829 L -49.23572 1016.60068" />
    <path d="M -98.31536 1074.86849 L -88.8975 1077.00829" />
    <path d="M -98.31536 1005.44946 L -98.31536 1074.86849" />
    <path d="M -446.7763 926.27677 L -98.31536 1005.44946" />
    <path d="M -446.7763 926.27677 L -446.7763 995.6958 L -407.11452 935.28819" />
    <path d="M -456.19417 993.556 L -446.7763 995.6958" />
    <path d="M -456.19417 924.13697 L -456.19417 993.556" />
    <path d="M -512.70135 911.29815 L -456.19417 924.13697" />
    <path d="M -512.70135 911.29815 L -512.70135 897.41434 L -456.19417 910.25316" />
    <path d="M -456.19417 908.71051 L -456.19417 910.25316" />
    <path d="M -512.70135 895.8717 L -456.19417 908.71051" />
    <path d="M -512.70135 895.8717 L -512.70135 881.98789 L -456.19417 894.82671" />
    <path d="M -456.19417 -1.45012 L -456.19417 894.82671" />
    <path d="M -512.70135 -14.28893 L -456.19417 -1.45012" />
    <path d="M -512.70135 -14.28893 L -512.70135 -28.17274 L -456.19417 -15.33392" />
    <path d="M -456.19417 -16.87657 L -456.19417 -15.33392" />
    <path d="M -512.70135 -29.71538 L -456.19417 -16.87657" />
    <path d="M -512.70135 -29.71538 L -512.70135 -43.59919 L -456.19417 -30.76038" />
    <path d="M -456.19417 -86.2956 L -456.19417 -30.76038" />
    <path d="M -456.19417 -86.2956 L -446.7763 -84.1558 L -446.7763 -28.62057 L -314.20884 -264.96024 L -376.31299 -225.48" />
    <path d="M -446.7763 -28.62057 L -98.31536 50.55211" />
    <path d="M -98.31536 -4.98311 L -98.31536 50.55211" />
    <path d="M -98.31536 64.43592 L -98.31536 65.97857" />
    <path d="M -446.7763 -14.73677 L -98.31536 64.43592" />
    <path d="M -446.7763 -14.73677 L -446.7763 -13.19412 L -98.31536 65.97857" />
    <path d="M -98.31536 79.86237 L -98.31536 976.1392" />
    <path d="M -446.7763 0.68968 L -98.31536 79.86237" />
    <path d="M -446.7763 0.68968 L -446.7763 896.96651 L -98.31536 976.1392" />
    <path d="M -98.31536 990.023 L -98.31536 991.56565" />
    <path d="M -446.7763 910.85032 L -98.31536 990.023" />
    <path d="M -446.7763 910.85032 L -446.7763 912.39296 L -98.31536 991.56565" />
    <path d="M -32.02108 -140.38966 L -22.60322 -138.24986 L -88.8975 -2.84331" />
    <path d="M -32.02108 -140.38966 L -98.31536 -4.98311" />
    <path d="M 34.2521 -185.78755 L -27.85204 -146.30732 L -18.43418 -144.16751 A 22.5 5.83488 282.80067 0 0 -22.60322 -138.24986" />
    <path d="M -32.02108 -140.38966 A 22.5 5.83488 102.80067 0 1 -27.85204 -146.30732" />
    <path d="M -88.8975 52.69192 L 43.66996 -183.64775 L -18.43418 -144.16751" />
    <path d="M -88.8975 68.11837 L -88.13001 66.7501" />
    <path d="M 53.15207 725.03476 L 53.15207 -76.59279" />
    <path d="M -88.8975 978.279 L 53.15207 725.03476" />
    <path d="M -88.8975 993.70545 L -88.13001 992.33718" />
    <path d="M 34.2521 -185.78755 L 43.66996 -183.64775" />
    <path d="M -323.62671 -267.10004 L -314.20884 -264.96024" />
    <path d="M -378.21656 -283.35705 L -512.70135 -43.59919" />
    <path d="M -62.42277 -448.82344 L -378.21656 -283.35705" />
    <path d="M -20.36108 -523.81051 L -62.42277 -448.82344" />
    <path d="M -204.88698 -654.19732 L -20.36108 -523.81051" />
    <path d="M -173.32664 -674.5333 A 22.5 14.32 180 0 0 -210.60167 -663.73344 A 22.5 14.32 180 0 0 -204.88698 -654.19732" />
    <path d="M 7.47403 -573.4346 L -173.32664 -674.5333" />
    <path d="M 46.88132 -643.68944 L 7.47403 -573.4346" />
    <path d="M -137.64459 -774.07625 L 46.88132 -643.68944" />
    <path d="M -106.08425 -794.41223 A 22.5 14.32 180 0 0 -143.35928 -783.61238 A 22.5 14.32 180 0 0 -137.64459 -774.07625" />
    <path d="M 74.71642 -693.31354 L -106.08425 -794.41223" />
    <path d="M 114.12371 -763.56838 L 74.71642 -693.31354" />
    <path d="M -70.40219 -893.95518 L 114.12371 -763.56838" />
    <path d="M -38.84185 -914.29116 A 22.5 14.32 180 0 0 -76.11688 -903.49131 A 22.5 14.32 180 0 0 -70.40219 -893.95518" />
    <path d="M 141.95882 -813.19247 L -38.84185 -914.29116" />
    <path d="M 181.36611 -883.44731 L 141.95882 -813.19247" />
    <path d="M -3.1598 -1013.83411 L 181.36611 -883.44731" />
    <path d="M 28.40055 -1034.17009 A 22.5 14.32 180 0 0 -8.87449 -1023.37024 A 22.5 14.32 180 0 0 -3.1598 -1013.83411" />
    <path d="M 241.53286 -914.99244 L 28.40055 -1034.17009" />
    <path d="M 525.0659 -921.32436 L 241.53286 -914.99244" />
    <path d="M 525.0659 -921.32436 A 22.5 14.32 0 0 1 548.25449 -907.01107 A 22.5 14.32 0 0 1 529.25632 -892.86557" />
    <path d="M 256.70902 -866.32889 L 529.25632 -892.86557" />
    <path d="M 217.30173 -796.07405 L 256.70902 -866.32889 L 256.70902 -852.44508 L 529.25632 -878.98176 L 529.25632 -892.86557" />
    <path d="M 457.82351 -801.44543 L 217.30173 -796.07405" />
    <path d="M 457.82351 -801.44543 A 22.5 14.32 0 0 1 481.01209 -787.13213 A 22.5 14.32 0 0 1 462.01393 -772.98663" />
    <path d="M 189.46662 -746.44996 L 462.01393 -772.98663" />
    <path d="M 150.05933 -676.19512 L 189.46662 -746.44996 L 189.46662 -732.56615 L 462.01393 -759.10283 L 462.01393 -772.98663" />
    <path d="M 390.58111 -681.56649 L 150.05933 -676.19512" />
    <path d="M 390.58111 -681.56649 A 22.5 14.32 0 0 1 413.7697 -667.2532 A 22.5 14.32 0 0 1 394.77153 -653.1077" />
    <path d="M 122.22423 -626.57103 L 394.77153 -653.1077" />
    <path d="M 82.81694 -556.31619 L 122.22423 -626.57103 L 122.22423 -612.68722 L 394.77153 -639.2239 L 394.77153 -653.1077" />
    <path d="M 323.33872 -561.68756 L 82.81694 -556.31619" />
    <path d="M 323.33872 -561.68756 A 22.5 14.32 0 0 1 346.5273 -547.37427 A 22.5 14.32 0 0 1 327.52914 -533.22877" />
    <path d="M 54.98183 -506.69209 L 327.52914 -533.22877" />
    <path d="M -389.89989 -221.70215 L -380.48202 -219.56235 A 22.5 5.83488 102.80067 0 1 -376.31299 -225.48" />
    <path d="M -389.89989 -221.70215 L -456.19417 -86.2956" />
    <path d="M -380.48202 -219.56235 L -446.7763 -84.1558" />
    <path d="M -204.88698 -640.31352 L -25.93826 -513.86757" />
    <path d="M -204.88698 -640.31352 A 22.5 14.32 360 0 1 -210.60167 -649.84964" />
    <path d="M -137.64459 -760.19245 L 41.30413 -633.7465" />
    <path d="M -137.64459 -760.19245 A 22.5 14.32 360 0 1 -143.35928 -769.72857" />
    <path d="M -70.40219 -880.07138 L 108.54653 -753.62543" />
    <path d="M -70.40219 -880.07138 A 22.5 14.32 360 0 1 -76.11688 -889.6075" />
    <path d="M -3.1598 -999.95031 L 175.78892 -873.50436" />
    <path d="M -3.1598 -999.95031 A 22.5 14.32 360 0 1 -8.87449 -1009.48643" />
    <path d="M 548.25449 -893.12726 A 22.5 14.32 0 0 1 529.25632 -878.98176" />
    <path d="M 225.18821 -796.25017 L 256.70902 -852.44508" />
    <path d="M 481.01209 -773.24833 A 22.5 14.32 0 0 1 462.01393 -759.10283" />
    <path d="M 157.94582 -676.37124 L 189.46662 -732.56615" />
    <path d="M 413.7697 -653.3694 A 22.5 14.32 0 0 1 394.77153 -639.2239" />
    <path d="M 90.70342 -556.49231 L 122.22423 -612.68722" />
    <path d="M 346.5273 -533.49047 A 22.5 14.32 0 0 1 327.52914 -519.34497" />
    <path d="M 15.70567 -422.78723 L 54.98183 -492.80829" />
    <path d="M -446.7763 -13.19412 L -446.00882 -14.56239" />
    <path d="M -511.93386 -29.541 L -512.70135 -28.17274" />
    <path d="M -204.88698 -638.77087 L -26.55795 -512.7628" />
    <path d="M -210.56901 -649.07832 A 22.5 14.32 180 0 0 -210.60167 -648.30699 L -210.60167 -634.42319" />
    <path d="M -210.60167 -648.30699 A 22.5 14.32 180 0 0 -204.88698 -638.77087" />
    <path d="M -137.64459 -758.6498 L 40.68444 -632.64173" />
    <path d="M -143.32661 -768.95725 A 22.5 14.32 180 0 0 -143.35928 -768.18592 L -143.35928 -754.30212" />
    <path d="M -143.35928 -768.18592 A 22.5 14.32 180 0 0 -137.64459 -758.6498" />
    <path d="M -70.40219 -878.52873 L 107.92684 -752.52066" />
    <path d="M -76.08422 -888.83618 A 22.5 14.32 180 0 0 -76.11688 -888.06486 L -76.11688 -874.18105" />
    <path d="M -76.11688 -888.06486 A 22.5 14.32 180 0 0 -70.40219 -878.52873" />
    <path d="M -3.1598 -998.40766 L 175.16924 -872.39959" />
    <path d="M -8.84182 -1008.71511 A 22.5 14.32 180 0 0 -8.87449 -1007.94379 L -8.87449 -994.05998" />
    <path d="M -8.87449 -1007.94379 A 22.5 14.32 180 0 0 -3.1598 -998.40766" />
    <path d="M 548.22183 -892.35594 A 22.5 14.32 0 0 1 548.25449 -891.58461 L 548.25449 -877.70081 A 22.5 14.32 0 0 1 529.25632 -863.55531 L 529.25632 -877.43911" />
    <path d="M 548.25449 -891.58461 A 22.5 14.32 0 0 1 529.25632 -877.43911" />
    <path d="M 256.70902 -850.90244 L 529.25632 -877.43911" />
    <path d="M 226.06449 -796.26974 L 256.70902 -850.90244 L 256.70902 -837.01863 L 529.25632 -863.55531" />
    <path d="M 480.97943 -772.47701 A 22.5 14.32 0 0 1 481.01209 -771.70568 L 481.01209 -757.82188 A 22.5 14.32 0 0 1 462.01393 -743.67638 L 462.01393 -757.56018" />
    <path d="M 481.01209 -771.70568 A 22.5 14.32 0 0 1 462.01393 -757.56018" />
    <path d="M 189.46662 -731.0235 L 462.01393 -757.56018" />
    <path d="M 158.82209 -676.39081 L 189.46662 -731.0235 L 189.46662 -717.1397 L 462.01393 -743.67638" />
    <path d="M 413.73703 -652.59807 A 22.5 14.32 0 0 1 413.7697 -651.82675 L 413.7697 -637.94295 A 22.5 14.32 0 0 1 394.77153 -623.79745 L 394.77153 -637.68125" />
    <path d="M 413.7697 -651.82675 A 22.5 14.32 0 0 1 394.77153 -637.68125" />
    <path d="M 122.22423 -611.14457 L 394.77153 -637.68125" />
    <path d="M 91.5797 -556.51188 L 122.22423 -611.14457 L 122.22423 -597.26077 L 394.77153 -623.79745" />
    <path d="M 346.49464 -532.71914 A 22.5 14.32 0 0 1 346.5273 -531.94782 L 346.5273 -518.06401 A 22.5 14.32 0 0 1 327.52914 -503.91851 L 327.52914 -517.80232" />
    <path d="M 346.5273 -531.94782 A 22.5 14.32 0 0 1 327.52914 -517.80232" />
    <path d="M 54.98183 -491.26564 L 327.52914 -517.80232" />
    <path d="M 16.01518 -421.79636 L 54.98183 -491.26564 L 54.98183 -477.38184 L 327.52914 -503.91851" />
    <path d="M -204.88698 -624.88706 L -32.13514 -502.81986" />
    <path d="M -204.88698 -624.88706 A 22.5 14.32 360 0 1 -210.60167 -634.42319" />
    <path d="M -137.64459 -744.76599 L 35.10726 -622.69879" />
    <path d="M -137.64459 -744.76599 A 22.5 14.32 360 0 1 -143.35928 -754.30212" />
    <path d="M -70.40219 -864.64493 L 102.34965 -742.57772" />
    <path d="M -70.40219 -864.64493 A 22.5 14.32 360 0 1 -76.11688 -874.18105" />
    <path d="M -3.1598 -984.52386 L 169.59205 -862.45665" />
    <path d="M -3.1598 -984.52386 A 22.5 14.32 360 0 1 -8.87449 -994.05998" />
    <path d="M 233.95097 -796.44586 L 256.70902 -837.01863" />
    <path d="M 166.70858 -676.56693 L 189.46662 -717.1397" />
    <path d="M 99.46618 -556.688 L 122.22423 -597.26077" />
    <path d="M 18.80071 -412.87857 L 54.98183 -477.38184" />
    <path d="M -304.72674 643.72227 L -304.72674 32.96431" />
    <path d="M -446.7763 896.96651 L -304.72674 643.72227" />
    <path d="M -456.19417 781.24757 L -512.70135 881.98789" />
    <path d="M -98.31536 495.57027 L -304.72674 603.72359" />
    <path d="M -204.88698 271.38976 L -98.31536 346.69374" />
    <path d="M -173.32664 251.05379 A 22.5 14.32 180 0 0 -210.60167 261.85364 L -210.60167 275.73744" />
    <path d="M -210.60167 261.85364 A 22.5 14.32 180 0 0 -204.88698 271.38976" />
    <path d="M -98.31536 292.998 L -173.32664 251.05379" />
    <path d="M -137.64459 151.51083 L -98.31536 179.30104" />
    <path d="M -106.08425 131.17485 A 22.5 14.32 180 0 0 -143.35928 141.97471 L -143.35928 155.85851" />
    <path d="M -143.35928 141.97471 A 22.5 14.32 180 0 0 -137.64459 151.51083" />
    <path d="M 74.71642 232.27355 L 53.15207 220.21536" />
    <path d="M -98.31536 135.519 L -106.08425 131.17485" />
    <path d="M 114.12371 162.01871 L 74.71642 232.27355" />
    <path d="M 53.15207 118.93588 L 114.12371 162.01871" />
    <path d="M 141.95882 112.39462 L 53.15207 62.73636" />
    <path d="M 181.36611 42.13978 L 141.95882 112.39462" />
    <path d="M 53.15207 -48.45682 L 181.36611 42.13978" />
    <path d="M 241.53286 10.59464 L 60.90192 -90.40914" />
    <path d="M 525.0659 4.26273 L 241.53286 10.59464" />
    <path d="M 525.0659 4.26273 A 22.5 14.32 0 0 1 548.25449 18.57602 L 548.25449 32.45982 A 22.5 14.32 0 0 1 529.25632 46.60532 L 529.25632 32.72152" />
    <path d="M 548.25449 18.57602 A 22.5 14.32 0 0 1 529.25632 32.72152" />
    <path d="M 256.70902 59.2582 L 529.25632 32.72152" />
    <path d="M 217.30173 129.51304 L 256.70902 59.2582 L 256.70902 73.142 L 529.25632 46.60532" />
    <path d="M 457.82351 124.14166 L 217.30173 129.51304" />
    <path d="M 457.82351 124.14166 A 22.5 14.32 0 0 1 481.01209 138.45495 L 481.01209 152.33875 A 22.5 14.32 0 0 1 462.01393 166.48426 L 462.01393 152.60045" />
    <path d="M 481.01209 138.45495 A 22.5 14.32 0 0 1 462.01393 152.60045" />
    <path d="M 189.46662 179.13713 L 462.01393 152.60045" />
    <path d="M 150.05933 249.39197 L 189.46662 179.13713 L 189.46662 193.02093 L 462.01393 166.48426" />
    <path d="M 390.58111 244.02059 L 150.05933 249.39197" />
    <path d="M 390.58111 244.02059 A 22.5 14.32 0 0 1 413.7697 258.33388 L 413.7697 272.21769 A 22.5 14.32 0 0 1 394.77153 286.36319 L 394.77153 272.47938" />
    <path d="M 413.7697 258.33388 A 22.5 14.32 0 0 1 394.77153 272.47938" />
    <path d="M 122.22423 299.01606 L 394.77153 272.47938" />
    <path d="M 82.81694 369.2709 L 122.22423 299.01606 L 122.22423 312.89986 L 394.77153 286.36319" />
    <path d="M 323.33872 363.89952 L 82.81694 369.2709" />
    <path d="M 323.33872 363.89952 A 22.5 14.32 0 0 1 346.5273 378.21281 L 346.5273 392.09662 A 22.5 14.32 0 0 1 327.52914 406.24212 L 327.52914 392.35831" />
    <path d="M 346.5273 378.21281 A 22.5 14.32 0 0 1 327.52914 392.35831" />
    <path d="M 54.98183 418.89499 L 327.52914 392.35831" />
    <path d="M 53.15207 422.15707 L 54.98183 418.89499 L 54.98183 432.7788 L 327.52914 406.24212" />
    <path d="M -204.88698 285.27357 L -98.31536 360.57754" />
    <path d="M -204.88698 285.27357 A 22.5 14.32 360 0 1 -210.60167 275.73744" />
    <path d="M -137.64459 165.39464 L -98.31536 193.18484" />
    <path d="M -137.64459 165.39464 A 22.5 14.32 360 0 1 -143.35928 155.85851" />
    <path d="M 53.15207 132.81968 L 108.54653 171.96165" />
    <path d="M 53.15207 -34.57302 L 175.78892 52.08272" />
    <path d="M 225.18821 129.33691 L 256.70902 73.142" />
    <path d="M 157.94582 249.21584 L 189.46662 193.02093" />
    <path d="M 90.70342 369.09478 L 122.22423 312.89986" />
    <path d="M 53.15207 436.04088 L 54.98183 432.7788" />
    <path d="M -446.7763 912.39296 L -446.00882 911.02469" />
    <path d="M -511.93386 896.04608 L -512.70135 897.41434" />
    <path d="M -204.88698 286.81621 L -98.31536 362.12019" />
    <path d="M -210.56901 276.50877 A 22.5 14.32 180 0 0 -210.60167 277.28009 L -210.60167 291.1639" />
    <path d="M -210.60167 277.28009 A 22.5 14.32 180 0 0 -204.88698 286.81621" />
    <path d="M -137.64459 166.93728 L -98.31536 194.72749" />
    <path d="M -143.32661 156.62984 A 22.5 14.32 180 0 0 -143.35928 157.40116 L -143.35928 171.28496" />
    <path d="M -143.35928 157.40116 A 22.5 14.32 180 0 0 -137.64459 166.93728" />
    <path d="M 53.15207 134.36233 L 107.92684 173.06642" />
    <path d="M 53.15207 -33.03037 L 175.16924 53.18749" />
    <path d="M 548.22183 33.23115 A 22.5 14.32 0 0 1 548.25449 34.00247 L 548.25449 47.88628 A 22.5 14.32 0 0 1 529.25632 62.03178 L 529.25632 48.14797" />
    <path d="M 548.25449 34.00247 A 22.5 14.32 0 0 1 529.25632 48.14797" />
    <path d="M 256.70902 74.68465 L 529.25632 48.14797" />
    <path d="M 226.06449 129.31734 L 256.70902 74.68465 L 256.70902 88.56845 L 529.25632 62.03178" />
    <path d="M 480.97943 153.11008 A 22.5 14.32 0 0 1 481.01209 153.8814 L 481.01209 167.76521 A 22.5 14.32 0 0 1 462.01393 181.91071 L 462.01393 168.0269" />
    <path d="M 481.01209 153.8814 A 22.5 14.32 0 0 1 462.01393 168.0269" />
    <path d="M 189.46662 194.56358 L 462.01393 168.0269" />
    <path d="M 158.82209 249.19627 L 189.46662 194.56358 L 189.46662 208.44738 L 462.01393 181.91071" />
    <path d="M 413.73703 272.98901 A 22.5 14.32 0 0 1 413.7697 273.76033 L 413.7697 287.64414 A 22.5 14.32 0 0 1 394.77153 301.78964 L 394.77153 287.90583" />
    <path d="M 413.7697 273.76033 A 22.5 14.32 0 0 1 394.77153 287.90583" />
    <path d="M 122.22423 314.44251 L 394.77153 287.90583" />
    <path d="M 91.5797 369.07521 L 122.22423 314.44251 L 122.22423 328.32632 L 394.77153 301.78964" />
    <path d="M 346.49464 392.86794 A 22.5 14.32 0 0 1 346.5273 393.63926 L 346.5273 407.52307 A 22.5 14.32 0 0 1 327.52914 421.66857 L 327.52914 407.78476" />
    <path d="M 346.5273 393.63926 A 22.5 14.32 0 0 1 327.52914 407.78476" />
    <path d="M 54.98183 434.32144 L 327.52914 407.78476" />
    <path d="M 53.15207 437.58352 L 54.98183 434.32144 L 54.98183 448.20525 L 327.52914 421.66857" />
    <path d="M -204.88698 300.70002 L -98.31536 376.00399" />
    <path d="M -204.88698 300.70002 A 22.5 14.32 360 0 1 -210.60167 291.1639" />
    <path d="M -137.64459 180.82109 L -98.31536 208.61129" />
    <path d="M -137.64459 180.82109 A 22.5 14.32 360 0 1 -143.35928 171.28496" />
    <path d="M 53.15207 148.24613 L 102.34965 183.00936" />
    <path d="M 53.15207 -19.14657 L 169.59205 63.13043" />
    <path d="M 233.95097 129.14122 L 256.70902 88.56845" />
    <path d="M 166.70858 249.02015 L 189.46662 208.44738" />
    <path d="M 99.46618 368.89908 L 122.22423 328.32632" />
    <path d="M 53.15207 451.46733 L 54.98183 448.20525" />
    <path d="M -385.73085 -227.61981 A 22.5 5.83488 282.80067 0 0 -389.89989 -221.70215" />
    <path d="M -323.62671 -267.10004 L -385.73085 -227.61981 L -376.31299 -225.48" />
    <path d="M -204.88698 -640.31352 L -204.88698 -654.19732" />
    <path d="M -137.64459 -760.19245 L -137.64459 -774.07625" />
    <path d="M -70.40219 -880.07138 L -70.40219 -893.95518" />
    <path d="M -3.1598 -999.95031 L -3.1598 -1013.83411" />
    <path d="M -204.88698 -624.88706 L -204.88698 -638.77087" />
    <path d="M -137.64459 -744.76599 L -137.64459 -758.6498" />
    <path d="M -70.40219 -864.64493 L -70.40219 -878.52873" />
    <path d="M -3.1598 -984.52386 L -3.1598 -998.40766" />
    <path d="M -204.88698 285.27357 L -204.88698 271.38976" />
    <path d="M -137.64459 165.39464 L -137.64459 151.51083" />
    <path d="M -204.88698 300.70002 L -204.88698 286.81621" />
    <path d="M -137.64459 180.82109 L -137.64459 166.93728" />
    <path d="M -210.60167 -663.73344 L -210.60167 -649.84964" />
    <path d="M -143.35928 -783.61238 L -143.35928 -769.72857" />
    <path d="M -76.11688 -903.49131 L -76.11688 -889.6075" />
    <path d="M -8.87449 -1023.37024 L -8.87449 -1009.48643" />
    <path d="M 548.25449 -907.01107 L 548.25449 -893.12726" />
    <path d="M 481.01209 -787.13213 L 481.01209 -773.24833" />
    <path d="M 413.7697 -667.2532 L 413.7697 -653.3694" />
    <path d="M 346.5273 -547.37427 L 346.5273 -533.49047" />
</svg>