<svg version="1.1" xmlns="http://www.w3.org/2000/svg" viewBox="-513.7013487719788 -1023.2637869705102 1062.95583946043 2101.2720765649537" fill="none" stroke="black" stroke-width="0.6%" vector-effect="non-scaling-stroke">
    <path d="M -98.31536 -4.98311 L -88.8975 -2.84331 L -88.8975 68.11837 L -41.80818 78.81738 L 101.69 -158.11123 A 40 25.45778 180 0 0 104.42302 -167.35989 A 40 25.45778 180 0 0 103.43614 -172.97998 L 13.18412 -416.74919 L 54.98183 -491.26564 L 54.98183 -477.38184 L 327.52914 -503.91851 L 327.52914 -517.80232" />
    <path d="M -41.80818 92.70119 L -41.80818 78.81738" />
    <path d="M -88.8975 82.00217 L -41.80818 92.70119 L 101.69 -144.22742 L 101.69 -158.11123" />
    <path d="M -88.8975 82.00217 L -88.8975 83.54482 L -41.80818 94.24383 L 101.69 -142.68478 A 40 25.45778 180 0 0 104.42302 -151.93344 L 104.42302 -138.04963 A 40 25.45778 0 0 1 101.69 -128.80097 L 101.69 -142.68478" />
    <path d="M -41.80818 108.12764 L -41.80818 94.24383" />
    <path d="M -88.8975 97.42863 L -41.80818 108.12764 L 101.69 -128.80097" />
    <path d="M -88.8975 97.42863 L -88.8975 962.85255 L -41.80818 973.55156 L 101.69 736.62295 A 40 25.45778 180 0 0 104.42302 727.37429 L 104.42302 741.2581 A 40 25.45778 0 0 1 101.69 750.50676 L 101.69 736.62295" />
    <path d="M -41.80818 987.43537 L -41.80818 973.55156" />
    <path d="M -88.8975 976.73635 L -41.80818 987.43537 L 101.69 750.50676" />
    <path d="M -88.8975 976.73635 L -88.8975 978.279 L -41.80818 988.97801 L 101.69 752.0494 A 40 25.45778 180 0 0 104.42302 742.80074 L 104.42302 756.68455 A 40 25.45778 0 0 1 101.69 765.93321 L 101.69 752.0494" />
    <path d="M -41.80818 1002.86182 L -41.80818 988.97801" />
    <path d="M -88.8975 992.16281 L -41.80818 1002.86182 L 101.69 765.93321" />
    <path d="M -88.8975 992.16281 L -88.8975 1077.00829 L -22.60322 976.03756 A 22.5 5.83488 282.80067 0 0 -18.43418 967.09019 L -16.22817 960.62689" />
    <path d="M -98.31536 1074.86849 L -88.8975 1077.00829" />
    <path d="M -98.31536 990.023 L -98.31536 1074.86849" />
    <path d="M -446.7763 910.85032 L -98.31536 990.023" />
    <path d="M -446.7763 910.85032 L -446.7763 995.6958 L -398.3008 921.86428" />
    <path d="M -456.19417 993.556 L -446.7763 995.6958" />
    <path d="M -456.19417 908.71051 L -456.19417 993.556" />
    <path d="M -512.70135 895.8717 L -456.19417 908.71051" />
    <path d="M -512.70135 895.8717 L -512.70135 881.98789 L -456.19417 894.82671" />
    <path d="M -456.19417 893.28406 L -456.19417 894.82671" />
    <path d="M -512.70135 880.44525 L -456.19417 893.28406" />
    <path d="M -512.70135 880.44525 L -512.70135 866.56144 L -456.19417 879.40026" />
    <path d="M -456.19417 13.97633 L -456.19417 879.40026" />
    <path d="M -512.70135 1.13752 L -456.19417 13.97633" />
    <path d="M -512.70135 1.13752 L -512.70135 -12.74629 L -456.19417 0.09253" />
    <path d="M -456.19417 -1.45012 L -456.19417 0.09253" />
    <path d="M -512.70135 -14.28893 L -456.19417 -1.45012" />
    <path d="M -512.70135 -14.28893 L -512.70135 -28.17274 L -456.19417 -15.33392" />
    <path d="M -456.19417 -86.2956 L -456.19417 -15.33392" />
    <path d="M -456.19417 -86.2956 L -446.7763 -84.1558 L -446.7763 -13.19412 L -305.22106 -265.5571 A 22.5 5.83488 282.80067 0 0 -307.30641 -268.72221 L -316.72428 -270.86201 A 22.5 5.83488 282.80067 0 0 -318.48845 -270.36648 L -309.07059 -268.22668 L -376.31299 -225.48" />
    <path d="M -446.7763 -13.19412 L -98.31536 65.97857" />
    <path d="M -98.31536 -4.98311 L -98.31536 65.97857" />
    <path d="M -98.31536 79.86237 L -98.31536 81.40502" />
    <path d="M -446.7763 0.68968 L -98.31536 79.86237" />
    <path d="M -446.7763 0.68968 L -446.7763 2.23233 L -98.31536 81.40502" />
    <path d="M -98.31536 95.28882 L -98.31536 960.71275" />
    <path d="M -446.7763 16.11614 L -98.31536 95.28882" />
    <path d="M -446.7763 16.11614 L -446.7763 881.54006 L -98.31536 960.71275" />
    <path d="M -98.31536 974.59655 L -98.31536 976.1392" />
    <path d="M -446.7763 895.42386 L -98.31536 974.59655" />
    <path d="M -446.7763 895.42386 L -446.7763 896.96651 L -98.31536 976.1392" />
    <path d="M -32.02108 -140.38966 L -22.60322 -138.24986 L -88.8975 -2.84331" />
    <path d="M -32.02108 -140.38966 L -98.31536 -4.98311" />
    <path d="M 41.15453 -189.54952 A 22.5 5.83488 282.80067 0 0 39.39035 -189.05399 L 48.80822 -186.91419 L -18.43418 -144.16751 A 22.5 5.83488 282.80067 0 0 -22.60322 -138.24986" />
    <path d="M 39.39035 -189.05399 L -27.85204 -146.30732 L -18.43418 -144.16751" />
    <path d="M -32.02108 -140.38966 A 22.5 5.83488 102.80067 0 1 -27.85204 -146.30732" />
    <path d="M -88.8975 68.11837 L 52.65775 -184.24461 A 22.5 5.83488 282.80067 0 0 50.57239 -187.40972 A 22.5 5.83488 282.80067 0 0 48.80822 -186.91419" />
    <path d="M -88.8975 83.54482 L -88.13001 82.17655" />
    <path d="M 53.15207 709.60831 L 53.15207 -48.6604" />
    <path d="M -88.8975 962.85255 L 53.15207 709.60831" />
    <path d="M -88.8975 978.279 L -88.13001 976.91073" />
    <path d="M -388.00741 -269.3738 L -512.70135 -28.17274" />
    <path d="M -374.56397 -281.58484 A 40 25.45778 180 0 0 -388.00741 -269.3738" />
    <path d="M -62.15879 -433.86761 L -374.56397 -281.58484" />
    <path d="M -20.36108 -508.38406 L -62.15879 -433.86761" />
    <path d="M -204.88698 -638.77087 L -20.36108 -508.38406" />
    <path d="M -173.32664 -659.10685 A 22.5 14.32 180 0 0 -210.60167 -648.30699 A 22.5 14.32 180 0 0 -204.88698 -638.77087" />
    <path d="M 7.47403 -558.00815 L -173.32664 -659.10685" />
    <path d="M 46.88132 -628.26299 L 7.47403 -558.00815" />
    <path d="M -137.64459 -758.6498 L 46.88132 -628.26299" />
    <path d="M -106.08424 -778.98578 A 22.5 14.32 180 0 0 -143.35928 -768.18592 A 22.5 14.32 180 0 0 -137.64459 -758.6498" />
    <path d="M 74.71643 -677.88708 L -106.08424 -778.98578" />
    <path d="M 114.12371 -748.14192 L 74.71643 -677.88708" />
    <path d="M -70.40219 -878.52873 L 114.12371 -748.14192" />
    <path d="M -38.84185 -898.86471 A 22.5 14.32 180 0 0 -76.11688 -888.06486 A 22.5 14.32 180 0 0 -70.40219 -878.52873" />
    <path d="M 141.95882 -797.76601 L -38.84185 -898.86471" />
    <path d="M 181.36611 -868.02085 L 141.95882 -797.76601" />
    <path d="M -3.1598 -998.40766 L 181.36611 -868.02085" />
    <path d="M 28.40055 -1018.74364 A 22.5 14.32 180 0 0 -8.87448 -1007.94379 A 22.5 14.32 180 0 0 -3.1598 -998.40766" />
    <path d="M 241.53286 -899.56599 L 28.40055 -1018.74364" />
    <path d="M 525.0659 -905.89791 L 241.53286 -899.56599" />
    <path d="M 525.0659 -905.89791 A 22.5 14.32 0 0 1 548.25449 -891.58461 A 22.5 14.32 0 0 1 529.25632 -877.43911" />
    <path d="M 256.70902 -850.90244 L 529.25632 -877.43911" />
    <path d="M 217.30173 -780.6476 L 256.70902 -850.90244 L 256.70902 -837.01863 L 529.25632 -863.55531 L 529.25632 -877.43911" />
    <path d="M 457.82351 -786.01897 L 217.30173 -780.6476" />
    <path d="M 457.82351 -786.01897 A 22.5 14.32 0 0 1 481.01209 -771.70568 A 22.5 14.32 0 0 1 462.01393 -757.56018" />
    <path d="M 189.46662 -731.0235 L 462.01393 -757.56018" />
    <path d="M 150.05933 -660.76866 L 189.46662 -731.0235 L 189.46662 -717.1397 L 462.01393 -743.67638 L 462.01393 -757.56018" />
    <path d="M 390.58111 -666.14004 L 150.05933 -660.76866" />
    <path d="M 390.58111 -666.14004 A 22.5 14.32 0 0 1 413.7697 -651.82675 A 22.5 14.32 0 0 1 394.77153 -637.68125" />
    <path d="M 122.22423 -611.14457 L 394.77153 -637.68125" />
    <path d="M 82.81694 -540.88973 L 122.22423 -611.14457 L 122.22423 -597.26077 L 394.77153 -623.79745 L 394.77153 -637.68125" />
    <path d="M 323.33872 -546.26111 L 82.81694 -540.88973" />
    <path d="M 323.33872 -546.26111 A 22.5 14.32 0 0 1 346.5273 -531.94782 A 22.5 14.32 0 0 1 327.52914 -517.80232" />
    <path d="M 54.98183 -491.26564 L 327.52914 -517.80232" />
    <path d="M -389.89989 -221.70215 L -380.48203 -219.56235 A 22.5 5.83488 102.80067 0 1 -376.31299 -225.48" />
    <path d="M -389.89989 -221.70215 L -456.19417 -86.2956" />
    <path d="M -380.48203 -219.56235 L -446.7763 -84.1558" />
    <path d="M -307.30641 -268.72221 A 22.5 5.83488 282.80067 0 0 -309.07059 -268.22668" />
    <path d="M 104.42302 -153.47608 A 40 25.45778 0 0 1 101.69 -144.22742" />
    <path d="M -204.88698 -624.88706 L -25.93826 -498.44112" />
    <path d="M -204.88698 -624.88706 A 22.5 14.32 360 0 1 -210.60167 -634.42319" />
    <path d="M -137.64459 -744.76599 L 41.30413 -618.32005" />
    <path d="M -137.64459 -744.76599 A 22.5 14.32 360 0 1 -143.35928 -754.30212" />
    <path d="M -70.40219 -864.64493 L 108.54653 -738.19898" />
    <path d="M -70.40219 -864.64493 A 22.5 14.32 360 0 1 -76.11688 -874.18105" />
    <path d="M -3.1598 -984.52386 L 175.78892 -858.07791" />
    <path d="M -3.1598 -984.52386 A 22.5 14.32 360 0 1 -8.87448 -994.05998" />
    <path d="M 548.25449 -877.70081 A 22.5 14.32 0 0 1 529.25632 -863.55531" />
    <path d="M 225.18821 -780.82372 L 256.70902 -837.01863" />
    <path d="M 481.01209 -757.82188 A 22.5 14.32 0 0 1 462.01393 -743.67638" />
    <path d="M 157.94582 -660.94479 L 189.46662 -717.1397" />
    <path d="M 413.7697 -637.94295 A 22.5 14.32 0 0 1 394.77153 -623.79745" />
    <path d="M 90.70342 -541.06586 L 122.22423 -597.26077" />
    <path d="M 346.5273 -518.06401 A 22.5 14.32 0 0 1 327.52914 -503.91851" />
    <path d="M 16.28058 -408.38571 L 54.98183 -477.38184" />
    <path d="M -446.7763 2.23233 L -446.00882 0.86406" />
    <path d="M -511.98767 -14.12678 L -512.70135 -12.74629" />
    <path d="M -204.88698 -623.34442 L -26.55795 -497.33635" />
    <path d="M -210.56901 -633.65186 A 22.5 14.32 180 0 0 -210.60167 -632.88054 L -210.60167 -618.99674" />
    <path d="M -210.60167 -632.88054 A 22.5 14.32 180 0 0 -204.88698 -623.34442" />
    <path d="M -137.64459 -743.22335 L 40.68444 -617.21528" />
    <path d="M -143.32661 -753.5308 A 22.5 14.32 180 0 0 -143.35928 -752.75947 L -143.35928 -738.87567" />
    <path d="M -143.35928 -752.75947 A 22.5 14.32 180 0 0 -137.64459 -743.22335" />
    <path d="M -70.40219 -863.10228 L 107.92684 -737.09421" />
    <path d="M -76.08422 -873.40973 A 22.5 14.32 180 0 0 -76.11688 -872.6384 L -76.11688 -858.7546" />
    <path d="M -76.11688 -872.6384 A 22.5 14.32 180 0 0 -70.40219 -863.10228" />
    <path d="M -3.1598 -982.98121 L 175.16924 -856.97314" />
    <path d="M -8.84182 -993.28866 A 22.5 14.32 180 0 0 -8.87448 -992.51734 L -8.87448 -978.63353" />
    <path d="M -8.87448 -992.51734 A 22.5 14.32 180 0 0 -3.1598 -982.98121" />
    <path d="M 548.22183 -876.92948 A 22.5 14.32 0 0 1 548.25449 -876.15816 L 548.25449 -862.27436 A 22.5 14.32 0 0 1 529.25632 -848.12886 L 529.25632 -862.01266" />
    <path d="M 548.25449 -876.15816 A 22.5 14.32 0 0 1 529.25632 -862.01266" />
    <path d="M 256.70902 -835.47598 L 529.25632 -862.01266" />
    <path d="M 226.06449 -780.84329 L 256.70902 -835.47598 L 256.70902 -821.59218 L 529.25632 -848.12886" />
    <path d="M 480.97943 -757.05055 A 22.5 14.32 0 0 1 481.01209 -756.27923 L 481.01209 -742.39542 A 22.5 14.32 0 0 1 462.01393 -728.24992 L 462.01393 -742.13373" />
    <path d="M 481.01209 -756.27923 A 22.5 14.32 0 0 1 462.01393 -742.13373" />
    <path d="M 189.46662 -715.59705 L 462.01393 -742.13373" />
    <path d="M 158.82209 -660.96436 L 189.46662 -715.59705 L 189.46662 -701.71325 L 462.01393 -728.24992" />
    <path d="M 413.73704 -637.17162 A 22.5 14.32 0 0 1 413.7697 -636.4003 L 413.7697 -622.51649 A 22.5 14.32 0 0 1 394.77153 -608.37099 L 394.77153 -622.2548" />
    <path d="M 413.7697 -636.4003 A 22.5 14.32 0 0 1 394.77153 -622.2548" />
    <path d="M 122.22423 -595.71812 L 394.77153 -622.2548" />
    <path d="M 91.5797 -541.08543 L 122.22423 -595.71812 L 122.22423 -581.83432 L 394.77153 -608.37099" />
    <path d="M 346.49464 -517.29269 A 22.5 14.32 0 0 1 346.5273 -516.52137 L 346.5273 -502.63756 A 22.5 14.32 0 0 1 327.52914 -488.49206 L 327.52914 -502.37587" />
    <path d="M 346.5273 -516.52137 A 22.5 14.32 0 0 1 327.52914 -502.37587" />
    <path d="M 54.98183 -475.83919 L 327.52914 -502.37587" />
    <path d="M 16.62463 -407.45643 L 54.98183 -475.83919 L 54.98183 -461.95538 L 327.52914 -488.49206" />
    <path d="M 104.42302 -151.93344 A 40 25.45778 180 0 0 104.40466 -152.70476" />
    <path d="M -204.88698 -609.46061 L -32.13514 -487.39341" />
    <path d="M -204.88698 -609.46061 A 22.5 14.32 360 0 1 -210.60167 -618.99674" />
    <path d="M -137.64459 -729.33954 L 35.10726 -607.27234" />
    <path d="M -137.64459 -729.33954 A 22.5 14.32 360 0 1 -143.35928 -738.87567" />
    <path d="M -70.40219 -849.21847 L 102.34965 -727.15127" />
    <path d="M -70.40219 -849.21847 A 22.5 14.32 360 0 1 -76.11688 -858.7546" />
    <path d="M -3.1598 -969.09741 L 169.59205 -847.0302" />
    <path d="M -3.1598 -969.09741 A 22.5 14.32 360 0 1 -8.87448 -978.63353" />
    <path d="M 233.95097 -781.01941 L 256.70902 -821.59218" />
    <path d="M 166.70858 -661.14048 L 189.46662 -701.71325" />
    <path d="M 99.46618 -541.26155 L 122.22423 -581.83432" />
    <path d="M 19.72109 -399.09295 L 54.98183 -461.95538" />
    <path d="M -304.72674 628.29582 L -304.72674 48.39076" />
    <path d="M -446.7763 881.54006 L -304.72674 628.29582" />
    <path d="M -456.19417 757.25708 L -512.70135 866.56144" />
    <path d="M -98.31536 478.49119 L -304.72674 579.10699" />
    <path d="M -204.88698 255.96331 L -98.31536 331.26728" />
    <path d="M -173.32664 235.62733 A 22.5 14.32 180 0 0 -210.60167 246.42719 L -210.60167 260.31099" />
    <path d="M -210.60167 246.42719 A 22.5 14.32 180 0 0 -204.88698 255.96331" />
    <path d="M -98.31536 277.57155 L -173.32664 235.62733" />
    <path d="M -137.64459 136.08438 L -98.31536 163.87458" />
    <path d="M -106.08424 115.7484 A 22.5 14.32 180 0 0 -143.35928 126.54826 L -143.35928 140.43206" />
    <path d="M -143.35928 126.54826 A 22.5 14.32 180 0 0 -137.64459 136.08438" />
    <path d="M 74.71643 216.8471 L 53.15207 204.78891" />
    <path d="M -98.31536 120.09255 L -106.08424 115.7484" />
    <path d="M 114.12371 146.59226 L 74.71643 216.8471" />
    <path d="M 53.15207 103.50942 L 114.12371 146.59226" />
    <path d="M 141.95882 96.96817 L 53.15207 47.3099" />
    <path d="M 181.36611 26.71333 L 141.95882 96.96817" />
    <path d="M 59.60874 -59.32096 L 181.36611 26.71333" />
    <path d="M 241.53286 -4.83181 L 80.98074 -94.60808" />
    <path d="M 525.0659 -11.16373 L 241.53286 -4.83181" />
    <path d="M 525.0659 -11.16373 A 22.5 14.32 0 0 1 548.25449 3.14957 L 548.25449 17.03337 A 22.5 14.32 0 0 1 529.25632 31.17887 L 529.25632 17.29507" />
    <path d="M 548.25449 3.14957 A 22.5 14.32 0 0 1 529.25632 17.29507" />
    <path d="M 256.70902 43.83174 L 529.25632 17.29507" />
    <path d="M 217.30173 114.08658 L 256.70902 43.83174 L 256.70902 57.71555 L 529.25632 31.17887" />
    <path d="M 457.82351 108.71521 L 217.30173 114.08658" />
    <path d="M 457.82351 108.71521 A 22.5 14.32 0 0 1 481.01209 123.0285 L 481.01209 136.9123 A 22.5 14.32 0 0 1 462.01393 151.0578 L 462.01393 137.174" />
    <path d="M 481.01209 123.0285 A 22.5 14.32 0 0 1 462.01393 137.174" />
    <path d="M 189.46662 163.71068 L 462.01393 137.174" />
    <path d="M 150.05933 233.96552 L 189.46662 163.71068 L 189.46662 177.59448 L 462.01393 151.0578" />
    <path d="M 390.58111 228.59414 L 150.05933 233.96552" />
    <path d="M 390.58111 228.59414 A 22.5 14.32 0 0 1 413.7697 242.90743 L 413.7697 256.79123 A 22.5 14.32 0 0 1 394.77153 270.93674 L 394.77153 257.05293" />
    <path d="M 413.7697 242.90743 A 22.5 14.32 0 0 1 394.77153 257.05293" />
    <path d="M 122.22423 283.58961 L 394.77153 257.05293" />
    <path d="M 82.81694 353.84445 L 122.22423 283.58961 L 122.22423 297.47341 L 394.77153 270.93674" />
    <path d="M 323.33872 348.47307 L 82.81694 353.84445" />
    <path d="M 323.33872 348.47307 A 22.5 14.32 0 0 1 346.5273 362.78636 L 346.5273 376.67017 A 22.5 14.32 0 0 1 327.52914 390.81567 L 327.52914 376.93186" />
    <path d="M 346.5273 362.78636 A 22.5 14.32 0 0 1 327.52914 376.93186" />
    <path d="M 54.98183 403.46854 L 327.52914 376.93186" />
    <path d="M 53.15207 406.73062 L 54.98183 403.46854 L 54.98183 417.35234 L 327.52914 390.81567" />
    <path d="M 103.43614 721.7542 L 53.15207 585.93775" />
    <path d="M 104.42302 727.37429 A 40 25.45778 180 0 0 103.43614 721.7542" />
    <path d="M -204.88698 269.84712 L -98.31536 345.15109" />
    <path d="M -204.88698 269.84712 A 22.5 14.32 360 0 1 -210.60167 260.31099" />
    <path d="M -137.64459 149.96819 L -98.31536 177.75839" />
    <path d="M -137.64459 149.96819 A 22.5 14.32 360 0 1 -143.35928 140.43206" />
    <path d="M 53.15207 117.39323 L 108.54653 156.5352" />
    <path d="M 53.72002 -49.59815 L 175.78892 36.65627" />
    <path d="M 225.18821 113.91046 L 256.70902 57.71555" />
    <path d="M 157.94582 233.78939 L 189.46662 177.59448" />
    <path d="M 90.70342 353.66832 L 122.22423 297.47341" />
    <path d="M 53.15207 420.61443 L 54.98183 417.35234" />
    <path d="M -446.7763 896.96651 L -446.00882 895.59824" />
    <path d="M -511.98767 880.6074 L -512.70135 881.98789" />
    <path d="M -204.88698 271.38976 L -98.31536 346.69373" />
    <path d="M -210.56901 261.08232 A 22.5 14.32 180 0 0 -210.60167 261.85364 L -210.60167 275.73744" />
    <path d="M -210.60167 261.85364 A 22.5 14.32 180 0 0 -204.88698 271.38976" />
    <path d="M -137.64459 151.51083 L -98.31536 179.30103" />
    <path d="M -143.32661 141.20338 A 22.5 14.32 180 0 0 -143.35928 141.97471 L -143.35928 155.85851" />
    <path d="M -143.35928 141.97471 A 22.5 14.32 180 0 0 -137.64459 151.51083" />
    <path d="M 53.15207 118.93588 L 107.92684 157.63997" />
    <path d="M 53.15207 -48.45683 L 175.16924 37.76104" />
    <path d="M 548.22183 17.8047 A 22.5 14.32 0 0 1 548.25449 18.57602 L 548.25449 32.45982 A 22.5 14.32 0 0 1 529.25632 46.60532 L 529.25632 32.72152" />
    <path d="M 548.25449 18.57602 A 22.5 14.32 0 0 1 529.25632 32.72152" />
    <path d="M 256.70902 59.2582 L 529.25632 32.72152" />
    <path d="M 226.06449 113.89089 L 256.70902 59.2582 L 256.70902 73.142 L 529.25632 46.60532" />
    <path d="M 480.97943 137.68363 A 22.5 14.32 0 0 1 481.01209 138.45495 L 481.01209 152.33876 A 22.5 14.32 0 0 1 462.01393 166.48426 L 462.01393 152.60045" />
    <path d="M 481.01209 138.45495 A 22.5 14.32 0 0 1 462.01393 152.60045" />
    <path d="M 189.46662 179.13713 L 462.01393 152.60045" />
    <path d="M 158.82209 233.76982 L 189.46662 179.13713 L 189.46662 193.02093 L 462.01393 166.48426" />
    <path d="M 413.73704 257.56256 A 22.5 14.32 0 0 1 413.7697 258.33388 L 413.7697 272.21769 A 22.5 14.32 0 0 1 394.77153 286.36319 L 394.77153 272.47938" />
    <path d="M 413.7697 258.33388 A 22.5 14.32 0 0 1 394.77153 272.47938" />
    <path d="M 122.22423 299.01606 L 394.77153 272.47938" />
    <path d="M 91.5797 353.64875 L 122.22423 299.01606 L 122.22423 312.89986 L 394.77153 286.36319" />
    <path d="M 346.49464 377.44149 A 22.5 14.32 0 0 1 346.5273 378.21281 L 346.5273 392.09662 A 22.5 14.32 0 0 1 327.52914 406.24212 L 327.52914 392.35831" />
    <path d="M 346.5273 378.21281 A 22.5 14.32 0 0 1 327.52914 392.35831" />
    <path d="M 54.98183 418.89499 L 327.52914 392.35831" />
    <path d="M 53.15207 422.15707 L 54.98183 418.89499 L 54.98183 432.7788 L 327.52914 406.24212" />
    <path d="M 104.42302 742.80074 A 40 25.45778 180 0 0 104.40466 742.02942" />
    <path d="M -204.88698 285.27357 L -98.31536 360.57754" />
    <path d="M -204.88698 285.27357 A 22.5 14.32 360 0 1 -210.60167 275.73744" />
    <path d="M -137.64459 165.39464 L -98.31536 193.18484" />
    <path d="M -137.64459 165.39464 A 22.5 14.32 360 0 1 -143.35928 155.85851" />
    <path d="M 53.15207 132.81968 L 102.34965 167.58291" />
    <path d="M 53.15207 -34.57302 L 169.59205 47.70398" />
    <path d="M 233.95097 113.71477 L 256.70902 73.142" />
    <path d="M 166.70858 233.5937 L 189.46662 193.02093" />
    <path d="M 99.46618 353.47263 L 122.22423 312.89986" />
    <path d="M 53.15207 436.04088 L 54.98183 432.7788" />
    <path d="M -385.73085 -227.61981 A 22.5 5.83488 282.80067 0 0 -389.89989 -221.70215" />
    <path d="M -318.48845 -270.36648 L -385.73085 -227.61981 L -376.31299 -225.48" />
    <path d="M -204.88698 -624.88706 L -204.88698 -638.77087" />
    <path d="M -137.64459 -744.76599 L -137.64459 -758.6498" />
    <path d="M -70.40219 -864.64493 L -70.40219 -878.52873" />
    <path d="M -3.1598 -984.52386 L -3.1598 -998.40766" />
    <path d="M -204.88698 -609.46061 L -204.88698 -623.34442" />
    <path d="M -137.64459 -729.33954 L -137.64459 -743.22335" />
    <path d="M -70.40219 -849.21847 L -70.40219 -863.10228" />
    <path d="M -3.1598 -969.09741 L -3.1598 -982.98121" />
    <path d="M -204.88698 269.84712 L -204.88698 255.96331" />
    <path d="M -137.64459 149.96819 L -137.64459 136.08438" />
    <path d="M -204.88698 285.27357 L -204.88698 271.38976" />
    <path d="M -137.64459 165.39464 L -137.64459 151.51083" />
    <path d="M 50.57239 -187.40972 L 41.15453 -189.54952" />
    <path d="M -210.60167 -648.30699 L -210.60167 -634.42319" />
    <path d="M -143.35928 -768.18592 L -143.35928 -754.30212" />
    <path d="M -76.11688 -888.06486 L -76.11688 -874.18105" />
    <path d="M -8.87448 -1007.94379 L -8.87448 -994.05998" />
    <path d="M 548.25449 -891.58461 L 548.25449 -877.70081" />
    <path d="M 481.01209 -771.70568 L 481.01209 -757.82188" />
    <path d="M 413.7697 -651.82675 L 413.7697 -637.94295" />
    <path d="M 346.5273 -531.94782 L 346.5273 -518.06401" />
    <path d="M 104.42302 -167.35989 L 104.42302 -153.47608" />
</svg>