<svg version="1.1" xmlns="http://www.w3.org/2000/svg" viewBox="-513.7013487719788 -1007.8373355900018 1062.95583946043 2085.8456251844455" fill="none" stroke="black" stroke-width="0.6%" vector-effect="non-scaling-stroke">
    <path d="M -98.31536 -4.98311 L -88.8975 -2.84331 L -88.8975 83.54482 L -41.80818 94.24383 L 101.69 -142.68478 A 40 25.45778 180 0 0 104.42302 -151.93344 A 40 25.45778 180 0 0 103.43614 -157.55353 L 13.18412 -401.32274 L 54.98183 -475.83919 L 54.98183 -461.95538 L 327.52914 -488.49206 L 327.52914 -502.37587" />
    <path d="M -41.80818 108.12764 L -41.80818 94.24383" />
    <path d="M -88.8975 97.42863 L -41.80818 108.12764 L 101.69 -128.80097 L 101.69 -142.68478" />
    <path d="M -88.8975 97.42863 L -88.8975 98.97127 L -41.80818 109.67028 L 101.69 -127.25832 A 40 25.45778 180 0 0 104.42302 -136.50699 L 104.42302 -122.62318 A 40 25.45778 0 0 1 101.69 -113.37452 L 101.69 -127.25832" />
    <path d="M -41.80818 123.55409 L -41.80818 109.67028" />
    <path d="M -88.8975 112.85508 L -41.80818 123.55409 L 101.69 -113.37452" />
    <path d="M -88.8975 112.85508 L -88.8975 947.4261 L -41.80818 958.12511 L 101.69 721.1965 A 40 25.45778 180 0 0 104.42302 711.94784 L 104.42302 725.83165 A 40 25.45778 0 0 1 101.69 735.08031 L 101.69 721.1965" />
    <path d="M -41.80818 972.00892 L -41.80818 958.12511" />
    <path d="M -88.8975 961.3099 L -41.80818 972.00892 L 101.69 735.08031" />
    <path d="M -88.8975 961.3099 L -88.8975 962.85255 L -41.80818 973.55156 L 101.69 736.62295 A 40 25.45778 180 0 0 104.42302 727.37429 L 104.42302 741.2581 A 40 25.45778 0 0 1 101.69 750.50676 L 101.69 736.62295" />
    <path d="M -41.80818 987.43537 L -41.80818 973.55156" />
    <path d="M -88.8975 976.73635 L -41.80818 987.43537 L 101.69 750.50676" />
    <path d="M -88.8975 976.73635 L -88.8975 1077.00829 L -22.60322 976.03756 A 22.5 5.83488 282.80067 0 0 -18.43418 967.09019 L -4.1647 925.28255" />
    <path d="M -98.31536 1074.86849 L -88.8975 1077.00829" />
    <path d="M -98.31536 974.59655 L -98.31536 1074.86849" />
    <path d="M -446.7763 895.42386 L -98.31536 974.59655" />
    <path d="M -446.7763 895.42386 L -446.7763 995.6958 L -389.48707 908.44037" />
    <path d="M -456.19417 993.556 L -446.7763 995.6958" />
    <path d="M -456.19417 893.28406 L -456.19417 993.556" />
    <path d="M -512.70135 880.44525 L -456.19417 893.28406" />
    <path d="M -512.70135 880.44525 L -512.70135 866.56144 L -456.19417 879.40026" />
    <path d="M -456.19417 877.85761 L -456.19417 879.40026" />
    <path d="M -512.70135 865.0188 L -456.19417 877.85761" />
    <path d="M -512.70135 865.0188 L -512.70135 851.13499 L -456.19417 863.9738" />
    <path d="M -456.19417 29.40278 L -456.19417 863.9738" />
    <path d="M -512.70135 16.56397 L -456.19417 29.40278" />
    <path d="M -512.70135 16.56397 L -512.70135 2.68016 L -456.19417 15.51898" />
    <path d="M -456.19417 13.97633 L -456.19417 15.51898" />
    <path d="M -512.70135 1.13752 L -456.19417 13.97633" />
    <path d="M -512.70135 1.13752 L -512.70135 -12.74629 L -456.19417 0.09253" />
    <path d="M -456.19417 -86.2956 L -456.19417 0.09253" />
    <path d="M -456.19417 -86.2956 L -446.7763 -84.1558 L -446.7763 2.23233 L -304.72674 -251.01191 L -304.72674 -260.26778 A 22.5 5.83488 282.80067 0 0 -307.30641 -268.72221 L -316.72428 -270.86201 A 22.5 5.83488 282.80067 0 0 -318.48845 -270.36648 L -309.07059 -268.22668 L -376.31299 -225.48" />
    <path d="M -446.7763 2.23233 L -98.31536 81.40502" />
    <path d="M -98.31536 -4.98311 L -98.31536 81.40502" />
    <path d="M -98.31536 95.28882 L -98.31536 96.83147" />
    <path d="M -446.7763 16.11614 L -98.31536 95.28882" />
    <path d="M -446.7763 16.11614 L -446.7763 17.65878 L -98.31536 96.83147" />
    <path d="M -98.31536 110.71527 L -98.31536 945.28629" />
    <path d="M -446.7763 31.54259 L -98.31536 110.71527" />
    <path d="M -446.7763 31.54259 L -446.7763 866.11361 L -98.31536 945.28629" />
    <path d="M -98.31536 959.1701 L -98.31536 960.71275" />
    <path d="M -446.7763 879.99741 L -98.31536 959.1701" />
    <path d="M -446.7763 879.99741 L -446.7763 881.54006 L -98.31536 960.71275" />
    <path d="M -32.02108 -140.38966 L -22.60322 -138.24986 L -88.8975 -2.84331" />
    <path d="M -32.02108 -140.38966 L -98.31536 -4.98311" />
    <path d="M 41.15453 -189.54952 A 22.5 5.83488 282.80067 0 0 39.39035 -189.05399 L 48.80822 -186.91419 L -18.43418 -144.16751 A 22.5 5.83488 282.80067 0 0 -22.60322 -138.24986" />
    <path d="M 39.39035 -189.05399 L -27.85204 -146.30732 L -18.43418 -144.16751" />
    <path d="M -32.02108 -140.38966 A 22.5 5.83488 102.80067 0 1 -27.85204 -146.30732" />
    <path d="M -88.8975 83.54482 L 53.15207 -169.69942 L 53.15207 -178.95529 A 22.5 5.83488 282.80067 0 0 50.57239 -187.40972 A 22.5 5.83488 282.80067 0 0 48.80822 -186.91419" />
    <path d="M -88.8975 98.97127 L -88.13001 97.603" />
    <path d="M 53.15207 694.18186 L 53.15207 -33.23395" />
    <path d="M -88.8975 947.4261 L 53.15207 694.18186" />
    <path d="M -88.8975 962.85255 L -88.13001 961.48428" />
    <path d="M -388.00741 -253.94735 L -512.70135 -12.74629" />
    <path d="M -374.56397 -266.15839 A 40 25.45778 180 0 0 -388.00741 -253.94735" />
    <path d="M -62.15879 -418.44116 L -374.56397 -266.15839" />
    <path d="M -20.36108 -492.95761 L -62.15879 -418.44116" />
    <path d="M -204.88698 -623.34442 L -20.36108 -492.95761" />
    <path d="M -173.32664 -643.68039 A 22.5 14.32 180 0 0 -210.60167 -632.88054 A 22.5 14.32 180 0 0 -204.88698 -623.34442" />
    <path d="M 7.47403 -542.5817 L -173.32664 -643.68039" />
    <path d="M 46.88132 -612.83654 L 7.47403 -542.5817" />
    <path d="M -137.64459 -743.22335 L 46.88132 -612.83654" />
    <path d="M -106.08424 -763.55933 A 22.5 14.32 180 0 0 -143.35928 -752.75947 A 22.5 14.32 180 0 0 -137.64459 -743.22335" />
    <path d="M 74.71643 -662.46063 L -106.08424 -763.55933" />
    <path d="M 114.12371 -732.71547 L 74.71643 -662.46063" />
    <path d="M -70.40219 -863.10228 L 114.12371 -732.71547" />
    <path d="M -38.84185 -883.43826 A 22.5 14.32 180 0 0 -76.11688 -872.6384 A 22.5 14.32 180 0 0 -70.40219 -863.10228" />
    <path d="M 141.95882 -782.33956 L -38.84185 -883.43826" />
    <path d="M 181.36611 -852.5944 L 141.95882 -782.33956" />
    <path d="M -3.1598 -982.98121 L 181.36611 -852.5944" />
    <path d="M 28.40055 -1003.31719 A 22.5 14.32 180 0 0 -8.87448 -992.51734 A 22.5 14.32 180 0 0 -3.1598 -982.98121" />
    <path d="M 241.53286 -884.13954 L 28.40055 -1003.31719" />
    <path d="M 525.0659 -890.47145 L 241.53286 -884.13954" />
    <path d="M 525.0659 -890.47145 A 22.5 14.32 0 0 1 548.25449 -876.15816 A 22.5 14.32 0 0 1 529.25632 -862.01266" />
    <path d="M 256.70902 -835.47598 L 529.25632 -862.01266" />
    <path d="M 217.30173 -765.22114 L 256.70902 -835.47598 L 256.70902 -821.59218 L 529.25632 -848.12886 L 529.25632 -862.01266" />
    <path d="M 457.82351 -770.59252 L 217.30173 -765.22114" />
    <path d="M 457.82351 -770.59252 A 22.5 14.32 0 0 1 481.01209 -756.27923 A 22.5 14.32 0 0 1 462.01393 -742.13373" />
    <path d="M 189.46662 -715.59705 L 462.01393 -742.13373" />
    <path d="M 150.05933 -645.34221 L 189.46662 -715.59705 L 189.46662 -701.71325 L 462.01393 -728.24992 L 462.01393 -742.13373" />
    <path d="M 390.58111 -650.71359 L 150.05933 -645.34221" />
    <path d="M 390.58111 -650.71359 A 22.5 14.32 0 0 1 413.7697 -636.4003 A 22.5 14.32 0 0 1 394.77153 -622.2548" />
    <path d="M 122.22423 -595.71812 L 394.77153 -622.2548" />
    <path d="M 82.81694 -525.46328 L 122.22423 -595.71812 L 122.22423 -581.83432 L 394.77153 -608.37099 L 394.77153 -622.2548" />
    <path d="M 323.33872 -530.83466 L 82.81694 -525.46328" />
    <path d="M 323.33872 -530.83466 A 22.5 14.32 0 0 1 346.5273 -516.52137 A 22.5 14.32 0 0 1 327.52914 -502.37587" />
    <path d="M 54.98183 -475.83919 L 327.52914 -502.37587" />
    <path d="M -389.89989 -221.70215 L -380.48203 -219.56235 A 22.5 5.83488 102.80067 0 1 -376.31299 -225.48" />
    <path d="M -389.89989 -221.70215 L -456.19417 -86.2956" />
    <path d="M -380.48203 -219.56235 L -446.7763 -84.1558" />
    <path d="M -307.30641 -268.72221 A 22.5 5.83488 282.80067 0 0 -309.07059 -268.22668" />
    <path d="M 104.42302 -138.04963 A 40 25.45778 0 0 1 101.69 -128.80097" />
    <path d="M -204.88698 -609.46061 L -25.93826 -483.01467" />
    <path d="M -204.88698 -609.46061 A 22.5 14.32 360 0 1 -210.60167 -618.99674" />
    <path d="M -137.64459 -729.33954 L 41.30413 -602.8936" />
    <path d="M -137.64459 -729.33954 A 22.5 14.32 360 0 1 -143.35928 -738.87567" />
    <path d="M -70.40219 -849.21847 L 108.54653 -722.77253" />
    <path d="M -70.40219 -849.21847 A 22.5 14.32 360 0 1 -76.11688 -858.7546" />
    <path d="M -3.1598 -969.09741 L 175.78892 -842.65146" />
    <path d="M -3.1598 -969.09741 A 22.5 14.32 360 0 1 -8.87448 -978.63353" />
    <path d="M 548.25449 -862.27436 A 22.5 14.32 0 0 1 529.25632 -848.12886" />
    <path d="M 225.18821 -765.39727 L 256.70902 -821.59218" />
    <path d="M 481.01209 -742.39542 A 22.5 14.32 0 0 1 462.01393 -728.24992" />
    <path d="M 157.94582 -645.51834 L 189.46662 -701.71325" />
    <path d="M 413.7697 -622.51649 A 22.5 14.32 0 0 1 394.77153 -608.37099" />
    <path d="M 90.70342 -525.6394 L 122.22423 -581.83432" />
    <path d="M 346.5273 -502.63756 A 22.5 14.32 0 0 1 327.52914 -488.49206" />
    <path d="M 16.28058 -392.95926 L 54.98183 -461.95538" />
    <path d="M -446.7763 17.65878 L -446.00882 16.29051" />
    <path d="M -511.98767 1.29967 L -512.70135 2.68016" />
    <path d="M -204.88698 -607.91797 L -26.55795 -481.9099" />
    <path d="M -210.56901 -618.22541 A 22.5 14.32 180 0 0 -210.60167 -617.45409 L -210.60167 -603.57028" />
    <path d="M -210.60167 -617.45409 A 22.5 14.32 180 0 0 -204.88698 -607.91797" />
    <path d="M -137.64459 -727.7969 L 40.68444 -601.78883" />
    <path d="M -143.32661 -738.10434 A 22.5 14.32 180 0 0 -143.35928 -737.33302 L -143.35928 -723.44922" />
    <path d="M -143.35928 -737.33302 A 22.5 14.32 180 0 0 -137.64459 -727.7969" />
    <path d="M -70.40219 -847.67583 L 107.92684 -721.66776" />
    <path d="M -76.08422 -857.98328 A 22.5 14.32 180 0 0 -76.11688 -857.21195 L -76.11688 -843.32815" />
    <path d="M -76.11688 -857.21195 A 22.5 14.32 180 0 0 -70.40219 -847.67583" />
    <path d="M -3.1598 -967.55476 L 175.16924 -841.54669" />
    <path d="M -8.84182 -977.86221 A 22.5 14.32 180 0 0 -8.87448 -977.09088 L -8.87448 -963.20708" />
    <path d="M -8.87448 -977.09088 A 22.5 14.32 180 0 0 -3.1598 -967.55476" />
    <path d="M 548.22183 -861.50303 A 22.5 14.32 0 0 1 548.25449 -860.73171 L 548.25449 -846.8479 A 22.5 14.32 0 0 1 529.25632 -832.7024 L 529.25632 -846.58621" />
    <path d="M 548.25449 -860.73171 A 22.5 14.32 0 0 1 529.25632 -846.58621" />
    <path d="M 256.70902 -820.04953 L 529.25632 -846.58621" />
    <path d="M 226.06449 -765.41684 L 256.70902 -820.04953 L 256.70902 -806.16573 L 529.25632 -832.7024" />
    <path d="M 480.97943 -741.6241 A 22.5 14.32 0 0 1 481.01209 -740.85278 L 481.01209 -726.96897 A 22.5 14.32 0 0 1 462.01393 -712.82347 L 462.01393 -726.70728" />
    <path d="M 481.01209 -740.85278 A 22.5 14.32 0 0 1 462.01393 -726.70728" />
    <path d="M 189.46662 -700.1706 L 462.01393 -726.70728" />
    <path d="M 158.82209 -645.53791 L 189.46662 -700.1706 L 189.46662 -686.2868 L 462.01393 -712.82347" />
    <path d="M 413.73704 -621.74517 A 22.5 14.32 0 0 1 413.7697 -620.97385 L 413.7697 -607.09004 A 22.5 14.32 0 0 1 394.77153 -592.94454 L 394.77153 -606.82835" />
    <path d="M 413.7697 -620.97385 A 22.5 14.32 0 0 1 394.77153 -606.82835" />
    <path d="M 122.22423 -580.29167 L 394.77153 -606.82835" />
    <path d="M 91.5797 -525.65897 L 122.22423 -580.29167 L 122.22423 -566.40786 L 394.77153 -592.94454" />
    <path d="M 346.49464 -501.86624 A 22.5 14.32 0 0 1 346.5273 -501.09492 L 346.5273 -487.21111 A 22.5 14.32 0 0 1 327.52914 -473.06561 L 327.52914 -486.94942" />
    <path d="M 346.5273 -501.09492 A 22.5 14.32 0 0 1 327.52914 -486.94942" />
    <path d="M 54.98183 -460.41274 L 327.52914 -486.94942" />
    <path d="M 16.62463 -392.02998 L 54.98183 -460.41274 L 54.98183 -446.52893 L 327.52914 -473.06561" />
    <path d="M 104.42302 -136.50699 A 40 25.45778 180 0 0 104.40466 -137.27831" />
    <path d="M -204.88698 -594.03416 L -32.13514 -471.96696" />
    <path d="M -204.88698 -594.03416 A 22.5 14.32 360 0 1 -210.60167 -603.57028" />
    <path d="M -137.64459 -713.91309 L 35.10726 -591.84589" />
    <path d="M -137.64459 -713.91309 A 22.5 14.32 360 0 1 -143.35928 -723.44922" />
    <path d="M -70.40219 -833.79202 L 102.34965 -711.72482" />
    <path d="M -70.40219 -833.79202 A 22.5 14.32 360 0 1 -76.11688 -843.32815" />
    <path d="M -3.1598 -953.67095 L 169.59205 -831.60375" />
    <path d="M -3.1598 -953.67095 A 22.5 14.32 360 0 1 -8.87448 -963.20708" />
    <path d="M 233.95097 -765.59296 L 256.70902 -806.16573" />
    <path d="M 166.70858 -645.71403 L 189.46662 -686.2868" />
    <path d="M 99.46618 -525.8351 L 122.22423 -566.40786" />
    <path d="M 19.72109 -383.6665 L 54.98183 -446.52893" />
    <path d="M -304.72674 612.86937 L -304.72674 63.81721" />
    <path d="M -446.7763 866.11361 L -304.72674 612.86937" />
    <path d="M -456.19417 741.83062 L -512.70135 851.13499" />
    <path d="M -98.31536 463.06474 L -304.72674 563.68054" />
    <path d="M -204.88698 240.53686 L -98.31536 315.84083" />
    <path d="M -173.32664 220.20088 A 22.5 14.32 180 0 0 -210.60167 231.00074 L -210.60167 244.88454" />
    <path d="M -210.60167 231.00074 A 22.5 14.32 180 0 0 -204.88698 240.53686" />
    <path d="M -98.31536 262.1451 L -173.32664 220.20088" />
    <path d="M -137.64459 120.65793 L -98.31536 148.44813" />
    <path d="M -137.84849 101.73308 A 22.5 14.32 180 0 0 -143.35928 111.1218 L -143.35928 125.00561" />
    <path d="M -143.35928 111.1218 A 22.5 14.32 180 0 0 -137.64459 120.65793" />
    <path d="M 74.71643 201.42064 L 53.15207 189.36246" />
    <path d="M 114.12371 131.16581 L 74.71643 201.42064" />
    <path d="M 53.15207 88.08297 L 114.12371 131.16581" />
    <path d="M 141.95882 81.54171 L 53.15207 31.88345" />
    <path d="M 181.36611 11.28687 L 141.95882 81.54171" />
    <path d="M 72.69478 -65.50076 L 181.36611 11.28687" />
    <path d="M 241.53286 -20.25826 L 94.93966 -102.22909" />
    <path d="M 525.0659 -26.59018 L 241.53286 -20.25826" />
    <path d="M 525.0659 -26.59018 A 22.5 14.32 0 0 1 548.25449 -12.27688 L 548.25449 1.60692 A 22.5 14.32 0 0 1 529.25632 15.75242 L 529.25632 1.86862" />
    <path d="M 548.25449 -12.27688 A 22.5 14.32 0 0 1 529.25632 1.86862" />
    <path d="M 256.70902 28.40529 L 529.25632 1.86862" />
    <path d="M 217.30173 98.66013 L 256.70902 28.40529 L 256.70902 42.2891 L 529.25632 15.75242" />
    <path d="M 457.82351 93.28875 L 217.30173 98.66013" />
    <path d="M 457.82351 93.28875 A 22.5 14.32 0 0 1 481.01209 107.60205 L 481.01209 121.48585 A 22.5 14.32 0 0 1 462.01393 135.63135 L 462.01393 121.74755" />
    <path d="M 481.01209 107.60205 A 22.5 14.32 0 0 1 462.01393 121.74755" />
    <path d="M 189.46662 148.28422 L 462.01393 121.74755" />
    <path d="M 150.05933 218.53906 L 189.46662 148.28422 L 189.46662 162.16803 L 462.01393 135.63135" />
    <path d="M 390.58111 213.16769 L 150.05933 218.53906" />
    <path d="M 390.58111 213.16769 A 22.5 14.32 0 0 1 413.7697 227.48098 L 413.7697 241.36478 A 22.5 14.32 0 0 1 394.77153 255.51028 L 394.77153 241.62648" />
    <path d="M 413.7697 227.48098 A 22.5 14.32 0 0 1 394.77153 241.62648" />
    <path d="M 122.22423 268.16316 L 394.77153 241.62648" />
    <path d="M 82.81694 338.41799 L 122.22423 268.16316 L 122.22423 282.04696 L 394.77153 255.51028" />
    <path d="M 323.33872 333.04662 L 82.81694 338.41799" />
    <path d="M 323.33872 333.04662 A 22.5 14.32 0 0 1 346.5273 347.35991 L 346.5273 361.24371 A 22.5 14.32 0 0 1 327.52914 375.38921 L 327.52914 361.50541" />
    <path d="M 346.5273 347.35991 A 22.5 14.32 0 0 1 327.52914 361.50541" />
    <path d="M 54.98183 388.04209 L 327.52914 361.50541" />
    <path d="M 53.15207 391.30417 L 54.98183 388.04209 L 54.98183 401.92589 L 327.52914 375.38921" />
    <path d="M 103.43614 706.32775 L 53.15207 570.5113" />
    <path d="M 104.42302 711.94784 A 40 25.45778 180 0 0 103.43614 706.32775" />
    <path d="M -204.88698 254.42066 L -98.31536 329.72464" />
    <path d="M -204.88698 254.42066 A 22.5 14.32 360 0 1 -210.60167 244.88454" />
    <path d="M -137.64459 134.54173 L -98.31536 162.33194" />
    <path d="M -137.64459 134.54173 A 22.5 14.32 360 0 1 -143.35928 125.00561" />
    <path d="M 53.15207 101.96678 L 108.54653 141.10875" />
    <path d="M 66.80606 -55.77795 L 175.78892 21.22982" />
    <path d="M 225.18821 98.48401 L 256.70902 42.2891" />
    <path d="M 157.94582 218.36294 L 189.46662 162.16803" />
    <path d="M 90.70342 338.24187 L 122.22423 282.04696" />
    <path d="M 53.15207 405.18797 L 54.98183 401.92589" />
    <path d="M -446.7763 881.54006 L -446.00882 880.17179" />
    <path d="M -511.98767 865.18095 L -512.70135 866.56144" />
    <path d="M -204.88698 255.96331 L -98.31536 331.26728" />
    <path d="M -210.56901 245.65586 A 22.5 14.32 180 0 0 -210.60167 246.42719 L -210.60167 260.31099" />
    <path d="M -210.60167 246.42719 A 22.5 14.32 180 0 0 -204.88698 255.96331" />
    <path d="M -137.64459 136.08438 L -98.31536 163.87458" />
    <path d="M -143.32661 125.77693 A 22.5 14.32 180 0 0 -143.35928 126.54826 L -143.35928 140.43206" />
    <path d="M -143.35928 126.54826 A 22.5 14.32 180 0 0 -137.64459 136.08438" />
    <path d="M 53.15207 103.50942 L 107.92684 142.21352" />
    <path d="M 66.15176 -54.69764 L 175.16924 22.33459" />
    <path d="M 548.22183 2.37824 A 22.5 14.32 0 0 1 548.25449 3.14957 L 548.25449 17.03337 A 22.5 14.32 0 0 1 529.25632 31.17887 L 529.25632 17.29507" />
    <path d="M 548.25449 3.14957 A 22.5 14.32 0 0 1 529.25632 17.29507" />
    <path d="M 256.70902 43.83174 L 529.25632 17.29507" />
    <path d="M 226.06449 98.46444 L 256.70902 43.83174 L 256.70902 57.71555 L 529.25632 31.17887" />
    <path d="M 480.97943 122.25717 A 22.5 14.32 0 0 1 481.01209 123.0285 L 481.01209 136.9123 A 22.5 14.32 0 0 1 462.01393 151.0578 L 462.01393 137.174" />
    <path d="M 481.01209 123.0285 A 22.5 14.32 0 0 1 462.01393 137.174" />
    <path d="M 189.46662 163.71068 L 462.01393 137.174" />
    <path d="M 158.82209 218.34337 L 189.46662 163.71068 L 189.46662 177.59448 L 462.01393 151.0578" />
    <path d="M 413.73704 242.13611 A 22.5 14.32 0 0 1 413.7697 242.90743 L 413.7697 256.79123 A 22.5 14.32 0 0 1 394.77153 270.93674 L 394.77153 257.05293" />
    <path d="M 413.7697 242.90743 A 22.5 14.32 0 0 1 394.77153 257.05293" />
    <path d="M 122.22423 283.58961 L 394.77153 257.05293" />
    <path d="M 91.5797 338.2223 L 122.22423 283.58961 L 122.22423 297.47341 L 394.77153 270.93674" />
    <path d="M 346.49464 362.01504 A 22.5 14.32 0 0 1 346.5273 362.78636 L 346.5273 376.67017 A 22.5 14.32 0 0 1 327.52914 390.81567 L 327.52914 376.93186" />
    <path d="M 346.5273 362.78636 A 22.5 14.32 0 0 1 327.52914 376.93186" />
    <path d="M 54.98183 403.46854 L 327.52914 376.93186" />
    <path d="M 53.15207 406.73062 L 54.98183 403.46854 L 54.98183 417.35234 L 327.52914 390.81567" />
    <path d="M 104.42302 727.37429 A 40 25.45778 180 0 0 104.40466 726.60297" />
    <path d="M -204.88698 269.84712 L -98.31536 345.15109" />
    <path d="M -204.88698 269.84712 A 22.5 14.32 360 0 1 -210.60167 260.31099" />
    <path d="M -137.64459 149.96819 L -98.31536 177.75839" />
    <path d="M -137.64459 149.96819 A 22.5 14.32 360 0 1 -143.35928 140.43206" />
    <path d="M 53.15207 117.39323 L 102.34965 152.15646" />
    <path d="M 60.26304 -44.97482 L 169.59205 32.27753" />
    <path d="M 233.95097 98.28832 L 256.70902 57.71555" />
    <path d="M 166.70858 218.16725 L 189.46662 177.59448" />
    <path d="M 99.46618 338.04618 L 122.22423 297.47341" />
    <path d="M 53.15207 420.61443 L 54.98183 417.35234" />
    <path d="M -385.73085 -227.61981 A 22.5 5.83488 282.80067 0 0 -389.89989 -221.70215" />
    <path d="M -318.48845 -270.36648 L -385.73085 -227.61981 L -376.31299 -225.48" />
    <path d="M -204.88698 -609.46061 L -204.88698 -623.34442" />
    <path d="M -137.64459 -729.33954 L -137.64459 -743.22335" />
    <path d="M -70.40219 -849.21847 L -70.40219 -863.10228" />
    <path d="M -3.1598 -969.09741 L -3.1598 -982.98121" />
    <path d="M -204.88698 -594.03416 L -204.88698 -607.91797" />
    <path d="M -137.64459 -713.91309 L -137.64459 -727.7969" />
    <path d="M -70.40219 -833.79202 L -70.40219 -847.67583" />
    <path d="M -3.1598 -953.67095 L -3.1598 -967.55476" />
    <path d="M -204.88698 254.42066 L -204.88698 240.53686" />
    <path d="M -137.64459 134.54173 L -137.64459 120.65793" />
    <path d="M -204.88698 269.84712 L -204.88698 255.96331" />
    <path d="M -137.64459 149.96819 L -137.64459 136.08438" />
    <path d="M 50.57239 -187.40972 L 41.15453 -189.54952" />
    <path d="M -210.60167 -632.88054 L -210.60167 -618.99674" />
    <path d="M -143.35928 -752.75947 L -143.35928 -738.87567" />
    <path d="M -76.11688 -872.6384 L -76.11688 -858.7546" />
    <path d="M -8.87448 -992.51734 L -8.87448 -978.63353" />
    <path d="M 548.25449 -876.15816 L 548.25449 -862.27436" />
    <path d="M 481.01209 -756.27923 L 481.01209 -742.39542" />
    <path d="M 413.7697 -636.4003 L 413.7697 -622.51649" />
    <path d="M 346.5273 -516.52137 L 346.5273 -502.63756" />
    <path d="M 104.42302 -151.93344 L 104.42302 -138.04963" />
</svg>