<svg version="1.1" xmlns="http://www.w3.org/2000/svg" viewBox="-377.6775672581629 -18.833198860765528 841.6279709127098 35.5525664223697" fill="none" stroke="black" stroke-width="0.6%" vector-effect="non-scaling-stroke">
    <path d="M -248.39874 14.49938 A 40 0.7311 180 0 0 -217.70321 14.9179 L 78.51276 15.71524 L 78.51276 -2.28175" />
    <path d="M 104.19155 15.30812 A 22.5 0.41125 360 0 1 78.51276 15.71524" />
    <path d="M -374.62259 9.53695 A 22.5 0.41125 0 0 1 -376.67757 9.36524" />
    <path d="M -374.62259 9.53695 L -248.39874 14.49938 L -248.39874 -3.49761 A 40 0.7311 180 0 0 -217.70321 -3.07909 L 78.51276 -2.28175" />
    <path d="M -217.70321 14.9179 L -217.70321 -3.07909" />
    <path d="M 87.63698 -3.0855 L -186.31867 -4.43337 L -335.07116 -8.84893 A 22.5 0.41125 180 0 0 -376.67757 -8.63175 A 22.5 0.41125 180 0 0 -374.62259 -8.46005 L -248.39874 -3.49761" />
    <path d="M 87.63698 -3.0855 A 22.5 0.41125 360 0 1 104.19155 -2.68887 A 22.5 0.41125 360 0 1 78.51276 -2.28175" />
    <path d="M -374.62259 9.53695 L -374.62259 -8.46005" />
    <path d="M 104.19155 12.5324 L 198.09905 12.78517 L 198.09905 -5.21182" />
    <path d="M 223.77783 12.37805 A 22.5 0.41125 360 0 1 198.09905 12.78517" />
    <path d="M -98.11692 -3.99942 L -98.11692 -6.00916 L 198.09905 -5.21182" />
    <path d="M -128.81246 -6.42768 A 40 0.7311 180 0 0 -98.11692 -6.00916" />
    <path d="M -128.81246 -4.15044 L -128.81246 -6.42768" />
    <path d="M 207.22327 -6.01557 L -66.73239 -7.36344 L -215.48488 -11.779 A 22.5 0.41125 180 0 0 -257.09128 -11.56182 L -257.09128 -6.53418" />
    <path d="M 207.22327 -6.01557 A 22.5 0.41125 360 0 1 223.77783 -5.61894 L 223.77783 12.37805" />
    <path d="M 223.77783 -5.61894 A 22.5 0.41125 360 0 1 198.09905 -5.21182" />
    <path d="M -257.09128 -11.56182 A 22.5 0.41125 180 0 0 -255.03631 -11.39011 L -128.81246 -6.42768" />
    <path d="M -255.03631 -6.47318 L -255.03631 -11.39011" />
    <path d="M 223.77783 9.60233 L 317.68533 9.85511 L 317.68533 -8.14189" />
    <path d="M 343.36412 9.44799 A 22.5 0.41125 360 0 1 317.68533 9.85511" />
    <path d="M 21.46936 -6.92948 L 21.46936 -8.93923 L 317.68533 -8.14189" />
    <path d="M -9.22617 -9.35775 A 40 0.7311 180 0 0 21.46936 -8.93923" />
    <path d="M -9.22617 -7.08051 L -9.22617 -9.35775" />
    <path d="M 326.80955 -8.94564 L 52.85389 -10.29351 L -95.89859 -14.70907 A 22.5 0.41125 180 0 0 -137.505 -14.49189 L -137.505 -9.46425" />
    <path d="M 326.80955 -8.94564 A 22.5 0.41125 360 0 1 343.36412 -8.54901 L 343.36412 9.44799" />
    <path d="M 343.36412 -8.54901 A 22.5 0.41125 360 0 1 317.68533 -8.14189" />
    <path d="M -137.505 -14.49189 A 22.5 0.41125 180 0 0 -135.45002 -14.32018 L -9.22617 -9.35775" />
    <path d="M -135.45002 -9.40325 L -135.45002 -14.32018" />
    <path d="M 343.36412 6.67226 L 437.27161 6.92504 L 437.27161 -11.07195" />
    <path d="M 462.9504 6.51792 A 22.5 0.41125 360 0 1 437.27161 6.92504" />
    <path d="M 141.05564 -9.85955 L 141.05564 -11.86929 L 437.27161 -11.07195" />
    <path d="M 110.36011 -12.28781 A 40 0.7311 180 0 0 141.05564 -11.86929" />
    <path d="M 110.36011 -10.01057 L 110.36011 -12.28781" />
    <path d="M 446.39584 -11.8757 L 172.44018 -13.22357 L 23.68769 -17.63914 A 22.5 0.41125 180 0 0 -17.91871 -17.42195 L -17.91871 -12.39432" />
    <path d="M 446.39584 -11.8757 A 22.5 0.41125 360 0 1 462.9504 -11.47907 L 462.9504 6.51792" />
    <path d="M 462.9504 -11.47907 A 22.5 0.41125 360 0 1 437.27161 -11.07195" />
    <path d="M -17.91871 -17.42195 A 22.5 0.41125 180 0 0 -15.86374 -17.25025 L 110.36011 -12.28781" />
    <path d="M -15.86374 -12.33332 L -15.86374 -17.25025" />
    <path d="M 104.19155 -2.68887 L 104.19155 15.30812" />
    <path d="M -376.67757 -8.63175 L -376.67757 9.36524" />
</svg>