<svg version="1.1" xmlns="http://www.w3.org/2000/svg" viewBox="-377.6775819831237 -18.83319419590151 841.6280271369014 35.55255909384937" fill="none" stroke="black" stroke-width="0.6%" vector-effect="non-scaling-stroke">
    <path d="M -248.39886 14.49938 A 40 0.7311 180 0 0 -217.70333 14.9179 L 78.51262 15.71524 L 78.51262 -2.28175" />
    <path d="M 104.19142 15.30812 A 22.5 0.41125 360 0 1 78.51262 15.71524" />
    <path d="M -374.62261 9.53694 A 22.5 0.41125 360 0 1 -376.67758 9.36524" />
    <path d="M -374.62261 9.53694 L -248.39886 14.49938 L -248.39886 -3.49762 A 40 0.7311 180 0 0 -217.70333 -3.0791 L 78.51262 -2.28175" />
    <path d="M -217.70333 14.9179 L -217.70333 -3.0791" />
    <path d="M 87.63686 -3.0855 L -186.31877 -4.43338 L -335.07117 -8.84894 A 22.5 0.41125 180 0 0 -376.67758 -8.63175 A 22.5 0.41125 180 0 0 -374.62261 -8.46005 L -248.39886 -3.49762" />
    <path d="M 87.63686 -3.0855 A 22.5 0.41125 360 0 1 104.19142 -2.68887 A 22.5 0.41125 360 0 1 78.51262 -2.28175" />
    <path d="M -374.62261 9.53694 L -374.62261 -8.46005" />
    <path d="M 104.19142 12.5324 L 198.09896 12.78517 L 198.09896 -5.21182" />
    <path d="M 223.77776 12.37805 A 22.5 0.41125 360 0 1 198.09896 12.78517" />
    <path d="M -98.11699 -3.99942 L -98.11699 -6.00916 L 198.09896 -5.21182" />
    <path d="M -128.81251 -6.42768 A 40 0.7311 180 0 0 -98.11699 -6.00916" />
    <path d="M -128.81251 -4.15044 L -128.81251 -6.42768" />
    <path d="M 207.2232 -6.01557 L -66.73243 -7.36344 L -215.48483 -11.779 A 22.5 0.41125 180 0 0 -257.09124 -11.56182 L -257.09124 -6.53418" />
    <path d="M 207.2232 -6.01557 A 22.5 0.41125 360 0 1 223.77776 -5.61894 L 223.77776 12.37805" />
    <path d="M 223.77776 -5.61894 A 22.5 0.41125 360 0 1 198.09896 -5.21182" />
    <path d="M -257.09124 -11.56182 A 22.5 0.41125 180 0 0 -255.03627 -11.39011 L -128.81251 -6.42768" />
    <path d="M -255.03627 -6.47318 L -255.03627 -11.39011" />
    <path d="M 223.77776 9.60233 L 317.68531 9.85511 L 317.68531 -8.14188" />
    <path d="M 343.3641 9.44799 A 22.5 0.41125 360 0 1 317.68531 9.85511" />
    <path d="M 21.46935 -6.92948 L 21.46935 -8.93923 L 317.68531 -8.14188" />
    <path d="M -9.22617 -9.35775 A 40 0.7311 180 0 0 21.46935 -8.93923" />
    <path d="M -9.22617 -7.08051 L -9.22617 -9.35775" />
    <path d="M 326.80954 -8.94563 L 52.85391 -10.29351 L -95.89849 -14.70907 A 22.5 0.41125 180 0 0 -137.5049 -14.49188 L -137.5049 -9.46425" />
    <path d="M 326.80954 -8.94563 A 22.5 0.41125 360 0 1 343.3641 -8.549 L 343.3641 9.44799" />
    <path d="M 343.3641 -8.549 A 22.5 0.41125 360 0 1 317.68531 -8.14188" />
    <path d="M -137.5049 -14.49188 A 22.5 0.41125 180 0 0 -135.44992 -14.32018 L -9.22617 -9.35775" />
    <path d="M -135.44992 -9.40325 L -135.44992 -14.32018" />
    <path d="M 343.3641 6.67227 L 437.27165 6.92504 L 437.27165 -11.07195" />
    <path d="M 462.95044 6.51792 A 22.5 0.41125 360 0 1 437.27165 6.92504" />
    <path d="M 141.05569 -9.85955 L 141.05569 -11.86929 L 437.27165 -11.07195" />
    <path d="M 110.36017 -12.28781 A 40 0.7311 180 0 0 141.05569 -11.86929" />
    <path d="M 110.36017 -10.01057 L 110.36017 -12.28781" />
    <path d="M 446.39589 -11.8757 L 172.44026 -13.22357 L 23.68785 -17.63913 A 22.5 0.41125 180 0 0 -17.91855 -17.42195 L -17.91855 -12.39431" />
    <path d="M 446.39589 -11.8757 A 22.5 0.41125 360 0 1 462.95044 -11.47907 L 462.95044 6.51792" />
    <path d="M 462.95044 -11.47907 A 22.5 0.41125 360 0 1 437.27165 -11.07195" />
    <path d="M -17.91855 -17.42195 A 22.5 0.41125 180 0 0 -15.86358 -17.25025 L 110.36017 -12.28781" />
    <path d="M -15.86358 -12.33331 L -15.86358 -17.25025" />
    <path d="M 104.19142 -2.68887 L 104.19142 15.30812" />
    <path d="M -376.67758 -8.63175 L -376.67758 9.36524" />
</svg>