<svg version="1.1" xmlns="http://www.w3.org/2000/svg" viewBox="-377.6775778638674 -18.832719736014532 841.6279951559779 35.55172341455119" fill="none" stroke="black" stroke-width="0.6%" vector-effect="non-scaling-stroke">
    <path d="M -248.39879 14.49908 A 40 0.73106 180 0 0 -217.70327 14.91758 L 78.5127 15.71488 L 78.5127 -2.28212" />
    <path d="M 104.19149 15.30778 A 22.5 0.41122 0 0 1 78.5127 15.71488" />
    <path d="M -374.6226 9.53692 A 22.5 0.41122 0 0 1 -376.67758 9.36522" />
    <path d="M -374.6226 9.53692 L -248.39879 14.49908 L -248.39879 -3.49791 A 40 0.73106 180 0 0 -217.70327 -3.07941 L 78.5127 -2.28212" />
    <path d="M -217.70327 14.91758 L -217.70327 -3.07941" />
    <path d="M 87.63693 -3.08582 L -186.31872 -4.43362 L -335.07117 -8.84894 A 22.5 0.41122 180 0 0 -376.67758 -8.63177 A 22.5 0.41122 180 0 0 -374.6226 -8.46008 L -248.39879 -3.49791" />
    <path d="M 87.63693 -3.08582 A 22.5 0.41122 0 0 1 104.19149 -2.68921 A 22.5 0.41122 0 0 1 78.5127 -2.28212" />
    <path d="M -374.6226 9.53692 L -374.6226 -8.46008" />
    <path d="M 104.19149 12.53221 L 198.09901 12.78497 L 198.09901 -5.21202" />
    <path d="M 223.7778 12.37787 A 22.5 0.41122 0 0 1 198.09901 12.78497" />
    <path d="M -98.11696 -3.99969 L -98.11696 -6.00932 L 198.09901 -5.21202" />
    <path d="M -128.81249 -6.42782 A 40 0.73106 180 0 0 -98.11696 -6.00932" />
    <path d="M -128.81249 -4.1507 L -128.81249 -6.42782" />
    <path d="M 207.22324 -6.01573 L -66.73241 -7.36353 L -215.48486 -11.77885 A 22.5 0.41122 180 0 0 -257.09127 -11.56168 L -257.09127 -6.53432" />
    <path d="M 207.22324 -6.01573 A 22.5 0.41122 0 0 1 223.7778 -5.61912 L 223.7778 12.37787" />
    <path d="M 223.7778 -5.61912 A 22.5 0.41122 0 0 1 198.09901 -5.21202" />
    <path d="M -257.09127 -11.56168 A 22.5 0.41122 180 0 0 -255.03629 -11.38999 L -128.81249 -6.42782" />
    <path d="M -255.03629 -6.47332 L -255.03629 -11.38999" />
    <path d="M 223.7778 9.6023 L 317.68532 9.85506 L 317.68532 -8.14193" />
    <path d="M 343.36411 9.44796 A 22.5 0.41122 0 0 1 317.68532 9.85506" />
    <path d="M 21.46935 -6.9296 L 21.46935 -8.93923 L 317.68532 -8.14193" />
    <path d="M -9.22618 -9.35773 A 40 0.73106 180 0 0 21.46935 -8.93923" />
    <path d="M -9.22618 -7.08061 L -9.22618 -9.35773" />
    <path d="M 326.80954 -8.94564 L 52.8539 -10.29344 L -95.89855 -14.70876 A 22.5 0.41122 180 0 0 -137.50496 -14.49159 L -137.50496 -9.46422" />
    <path d="M 326.80954 -8.94564 A 22.5 0.41122 0 0 1 343.36411 -8.54903 L 343.36411 9.44796" />
    <path d="M 343.36411 -8.54903 A 22.5 0.41122 0 0 1 317.68532 -8.14193" />
    <path d="M -137.50496 -14.49159 A 22.5 0.41122 180 0 0 -135.44998 -14.31989 L -9.22618 -9.35773" />
    <path d="M -135.44998 -9.40323 L -135.44998 -14.31989" />
    <path d="M 343.36411 6.67239 L 437.27162 6.92515 L 437.27162 -11.07184" />
    <path d="M 462.95042 6.51805 A 22.5 0.41122 0 0 1 437.27162 6.92515" />
    <path d="M 141.05566 -9.8595 L 141.05566 -11.86914 L 437.27162 -11.07184" />
    <path d="M 110.36013 -12.28763 A 40 0.73106 180 0 0 141.05566 -11.86914" />
    <path d="M 110.36013 -10.01052 L 110.36013 -12.28763" />
    <path d="M 446.39585 -11.87555 L 172.44021 -13.22334 L 23.68776 -17.63867 A 22.5 0.41122 180 0 0 -17.91865 -17.4215 L -17.91865 -12.39413" />
    <path d="M 446.39585 -11.87555 A 22.5 0.41122 0 0 1 462.95042 -11.47894 L 462.95042 6.51805" />
    <path d="M 462.95042 -11.47894 A 22.5 0.41122 0 0 1 437.27162 -11.07184" />
    <path d="M -17.91865 -17.4215 A 22.5 0.41122 180 0 0 -15.86367 -17.2498 L 110.36013 -12.28763" />
    <path d="M -15.86367 -12.33314 L -15.86367 -17.2498" />
    <path d="M 104.19149 -2.68921 L 104.19149 15.30778" />
    <path d="M -376.67758 -8.63177 L -376.67758 9.36522" />
</svg>